<?xml version="1.0" encoding="UTF-8"?>
<svg version="1.1" xmlns="http://www.w3.org/2000/svg" width="207" height="208">
<path d="M0 0 C1.40376758 1.21760485 2.78167599 2.46601962 4.125 3.75 C4.89070313 4.38421875 5.65640625 5.0184375 6.4453125 5.671875 C8.125 7.75 8.125 7.75 8.11328125 10.2734375 C6.95280759 13.18150192 5.73076924 14.40987583 3.3125 16.375 C2.62542969 16.94476563 1.93835938 17.51453125 1.23046875 18.1015625 C0.53566406 18.64554688 -0.15914063 19.18953125 -0.875 19.75 C-1.56464844 20.32105469 -2.25429687 20.89210937 -2.96484375 21.48046875 C-4.875 22.75 -4.875 22.75 -7.625 22.4375 C-8.3675 22.210625 -9.11 21.98375 -9.875 21.75 C-9.875 21.09 -9.875 20.43 -9.875 19.75 C-10.71224609 19.35941406 -10.71224609 19.35941406 -11.56640625 18.9609375 C-14.13527978 17.61347423 -16.42370911 16.02021237 -18.8125 14.375 C-30.69868674 6.86380812 -44.16704181 4.55170465 -57.98144531 7.14550781 C-66.6522833 9.23068765 -74.05609078 13.01762027 -80.875 18.75 C-81.49632812 19.24886719 -82.11765625 19.74773437 -82.7578125 20.26171875 C-93.22550753 29.57937554 -97.62091863 42.64242214 -99.1484375 56.171875 C-99.75845239 69.02911181 -94.61803372 81.77356306 -86.546875 91.578125 C-81.2862635 97.10342136 -75.75081578 101.43635384 -68.875 104.75 C-68.0190625 105.1625 -67.163125 105.575 -66.28125 106 C-54.52483396 110.75540424 -39.24581689 110.72840197 -27.48046875 106.015625 C-20.12860252 102.44440362 -13.90739391 98.25783791 -7.875 92.75 C-3.38391248 94.17860919 -0.41330684 96.68077292 2.9375 99.875 C3.69063477 100.57689453 3.69063477 100.57689453 4.45898438 101.29296875 C5.68689455 102.43901825 6.90678215 103.59365311 8.125 104.75 C7.24378158 110.24537601 3.19926591 113.28652693 -0.875 116.75 C-3.75004954 118.71542934 -6.73936689 120.24257699 -9.875 121.75 C-10.86628906 122.2553125 -11.85757813 122.760625 -12.87890625 123.28125 C-30.27707209 131.82330976 -50.34862275 133.89738422 -69.0390625 128.12890625 C-89.0033021 121.2505138 -104.47629404 108.78852309 -113.89550781 89.6796875 C-121.95699937 71.76904522 -123.46410193 51.7160724 -116.6875 33.125 C-108.34693375 13.21370601 -95.04880578 -1.30031541 -75.18725586 -9.89233398 C-50.67406016 -19.81618293 -20.9729288 -16.50076016 0 0 Z " fill="#2E4E8B" transform="translate(151.875,45.25)"/>
<path d="M0 0 C0.86462357 -0.00807175 1.72924713 -0.01614349 2.62007141 -0.02445984 C4.4516907 -0.03828957 6.28333564 -0.0490167 8.11499023 -0.05688477 C9.97997638 -0.06838603 11.84493009 -0.08880841 13.7097168 -0.1184082 C16.41087108 -0.16128367 19.11104676 -0.17728305 21.8125 -0.1875 C22.63674973 -0.20500809 23.46099945 -0.22251617 24.31022644 -0.24055481 C31.25663828 -0.21484817 36.5914378 1.66109158 41.61328125 6.55078125 C46.08678086 13.94926137 45.57262118 21.76740692 45.55078125 30.17578125 C45.56689453 31.41263672 45.58300781 32.64949219 45.59960938 33.92382812 C45.60397978 42.10085737 45.25788567 48.46377572 39.98828125 55.05078125 C33.95007716 59.85389814 28.67401721 60.6874781 21.19921875 60.6015625 C19.93339462 60.60231026 19.93339462 60.60231026 18.64199829 60.60307312 C16.86872995 60.60074487 15.09545753 60.5910906 13.32226562 60.57446289 C10.61428216 60.55079 7.90728005 60.5539215 5.19921875 60.56054688 C3.47004624 60.55497174 1.74087785 60.5478629 0.01171875 60.5390625 C-0.79359283 60.53997391 -1.59890442 60.54088531 -2.42861938 60.54182434 C-6.65285114 60.48869235 -9.90496506 60.17727213 -13.76171875 58.23828125 C-14.87546875 59.25921875 -14.87546875 59.25921875 -16.01171875 60.30078125 C-16.91921875 60.94015625 -17.82671875 61.57953125 -18.76171875 62.23828125 C-20.93359375 61.859375 -20.93359375 61.859375 -22.76171875 61.23828125 C-22.66890625 60.57441406 -22.57609375 59.91054687 -22.48046875 59.2265625 C-22.2486754 56.39123314 -22.19185533 54.03147545 -22.76171875 51.23828125 C-24.61224828 49.55077456 -26.30568577 48.69645753 -28.62109375 47.76171875 C-32.03718197 45.33056107 -33.44482077 42.16232072 -34.76171875 38.23828125 C-35.26265562 35.00483854 -35.27956772 31.87907827 -35.19921875 28.61328125 C-35.20630859 27.7934375 -35.21339844 26.97359375 -35.22070312 26.12890625 C-35.15416184 19.76141668 -33.61941443 15.65891501 -29.69921875 10.55078125 C-26.25629578 7.84039508 -23.31655308 7.08008438 -19.1328125 5.9921875 C-16.0844288 5.02293206 -14.10918935 3.37234544 -11.76171875 1.23828125 C-7.84468203 -0.06739766 -4.08566662 0.03617162 0 0 Z M-15.76171875 27.23828125 C-16.09171875 28.22828125 -16.42171875 29.21828125 -16.76171875 30.23828125 C-15.77171875 30.56828125 -14.78171875 30.89828125 -13.76171875 31.23828125 C-13.43171875 29.91828125 -13.10171875 28.59828125 -12.76171875 27.23828125 C-13.75171875 27.23828125 -14.74171875 27.23828125 -15.76171875 27.23828125 Z M-2.76171875 27.23828125 C-3.09171875 28.22828125 -3.42171875 29.21828125 -3.76171875 30.23828125 C-2.44171875 30.56828125 -1.12171875 30.89828125 0.23828125 31.23828125 C0.23828125 29.91828125 0.23828125 28.59828125 0.23828125 27.23828125 C-0.75171875 27.23828125 -1.74171875 27.23828125 -2.76171875 27.23828125 Z M10.23828125 27.23828125 C10.23828125 28.55828125 10.23828125 29.87828125 10.23828125 31.23828125 C11.55828125 30.90828125 12.87828125 30.57828125 14.23828125 30.23828125 C13.90828125 29.24828125 13.57828125 28.25828125 13.23828125 27.23828125 C12.24828125 27.23828125 11.25828125 27.23828125 10.23828125 27.23828125 Z " fill="#559CDB" transform="translate(104.76171875,71.76171875)"/>
<path d="M0 0 C5.55007795 -0.09938156 11.09963018 -0.1717096 16.65039062 -0.21972656 C18.53589916 -0.23975767 20.42134623 -0.26699073 22.30664062 -0.30175781 C25.02749862 -0.35065272 27.74753056 -0.37305382 30.46875 -0.390625 C31.30241089 -0.41127014 32.13607178 -0.43191528 32.99499512 -0.45318604 C39.986313 -0.4558256 45.3190562 1.38960735 50.375 6.3125 C54.84849961 13.71098012 54.33433993 21.52912567 54.3125 29.9375 C54.32861328 31.17435547 54.34472656 32.41121094 54.36132812 33.68554688 C54.36573356 41.92812139 54.11029697 48.42315848 48.5 54.875 C45.14533632 57.72646413 43.19276264 59.25340999 38.80395508 59.22705078 C37.96331009 59.22689972 37.1226651 59.22674866 36.25654602 59.22659302 C35.35333115 59.21627045 34.45011627 59.20594788 33.51953125 59.1953125 C32.12754768 59.19106766 32.12754768 59.19106766 30.70744324 59.18673706 C27.74233121 59.17553836 24.77752079 59.15043435 21.8125 59.125 C19.80273874 59.1149698 17.79297274 59.10584402 15.78320312 59.09765625 C10.85535247 59.07560004 5.92772738 59.04107229 1 59 C2.75 55.125 2.75 55.125 5 54 C6.65749436 53.88263276 8.31913459 53.82117839 9.98046875 53.7890625 C11.4799707 53.74652344 11.4799707 53.74652344 13.00976562 53.703125 C15.10855659 53.65152596 17.20753808 53.6071158 19.30664062 53.5703125 C27.61503642 53.36236583 27.61503642 53.36236583 35 50 C39.77369691 43.54665251 39.46341253 36.42940758 39 28.75 C38.95166016 27.15671875 38.95166016 27.15671875 38.90234375 25.53125 C38.68905816 21.17803646 38.4404194 17.85881783 36.4375 13.953125 C28.45945474 7.56046053 18.70487352 8.45585573 9 8.3125 C7.44658657 8.2792797 5.89319983 8.24478578 4.33984375 8.20898438 C0.56004407 8.12461752 -3.2197009 8.05755671 -7 8 C-5.328125 4.15625 -5.328125 4.15625 -2.375 2.75 C-1.59125 2.5025 -0.8075 2.255 0 2 C0 1.34 0 0.68 0 0 Z " fill="#ADD0DE" transform="translate(96,72)"/>
<path d="M0 0 C1.08809212 0.00636726 1.08809212 0.00636726 2.19816589 0.01286316 C4.50098766 0.02957332 6.80291428 0.06720915 9.10546875 0.10546875 C10.67251335 0.12052559 12.23957175 0.13421225 13.80664062 0.14648438 C17.63575832 0.17945144 21.46421209 0.23117883 25.29296875 0.29296875 C25.29296875 0.62296875 25.29296875 0.95296875 25.29296875 1.29296875 C20.34296875 1.29296875 15.39296875 1.29296875 10.29296875 1.29296875 C10.29296875 2.28296875 10.29296875 3.27296875 10.29296875 4.29296875 C11.59621094 4.36644531 11.59621094 4.36644531 12.92578125 4.44140625 C14.07820313 4.51617187 15.230625 4.5909375 16.41796875 4.66796875 C17.55492187 4.73757812 18.691875 4.8071875 19.86328125 4.87890625 C23.24690491 5.28740751 26.10909316 6.10264444 29.29296875 7.29296875 C28.96296875 8.61296875 28.63296875 9.93296875 28.29296875 11.29296875 C27.79796875 9.80796875 27.79796875 9.80796875 27.29296875 8.29296875 C13.43296875 7.96296875 -0.42703125 7.63296875 -14.70703125 7.29296875 C-11.30732599 0.49355823 -7.19312814 -0.16001844 0 0 Z " fill="#AFDCF2" transform="translate(103.70703125,72.70703125)"/>
<path d="M0 0 C1.03060547 0.18900879 1.03060547 0.18900879 2.08203125 0.38183594 C5.41016971 1.04779578 7.51092729 1.71561819 10.375 3.625 C8.43757659 3.65203381 6.50004521 3.67141125 4.5625 3.6875 C3.48355469 3.69910156 2.40460938 3.71070313 1.29296875 3.72265625 C-1.625 3.625 -1.625 3.625 -4.625 2.625 C-21.68442828 1.13773623 -36.16732451 3.77323597 -51.26098633 11.89453125 C-54.70801304 13.74827544 -57.72429164 15.12433437 -61.625 15.625 C-57.83178393 11.42170651 -54.07838529 8.95290354 -49 6.5 C-48.29359375 6.15380615 -47.5871875 5.8076123 -46.859375 5.45092773 C-31.94997638 -1.66322736 -16.1615322 -2.98445717 0 0 Z " fill="#21304A" transform="translate(120.625,31.375)"/>
<path d="M0 0 C5.48780488 -0.36585366 5.48780488 -0.36585366 7.75 1.25 C9 3 9 3 9.75 4.9375 C12.59452021 9.63095835 18.99637664 11.66310982 24.05078125 13.27734375 C28.96846421 14.48233891 33.9639533 15.24141949 38.96801758 15.99829102 C44.90496835 16.90496835 44.90496835 16.90496835 46 18 C47.41327947 18.15620555 48.8335459 18.25056173 50.25390625 18.31640625 C51.53491211 18.37924805 51.53491211 18.37924805 52.84179688 18.44335938 C53.73962891 18.48267578 54.63746094 18.52199219 55.5625 18.5625 C56.91504883 18.62727539 56.91504883 18.62727539 58.29492188 18.69335938 C60.52978485 18.79978142 62.76476308 18.90179988 65 19 C65 18.34 65 17.68 65 17 C69.62 16.67 74.24 16.34 79 16 C67.97256641 23.3516224 50.24552655 22.44873833 37.65625 20.37890625 C23.85079839 17.57835745 10.16133865 10.79494423 0 1 C0 0.67 0 0.34 0 0 Z " fill="#273B5D" transform="translate(53,155)"/>
<path d="M0 0 C0.66 0.33 1.32 0.66 2 1 C1.52691406 1.42667969 1.05382812 1.85335937 0.56640625 2.29296875 C-14.23667568 16.28808519 -21.67043383 33.49613929 -22.28894043 53.87788391 C-22.42327359 61.58664372 -22.26430061 69.29543389 -22 77 C-28.34257853 67.4861322 -26.4173831 52.38570335 -24.75 41.6171875 C-21.23971784 24.68738915 -11.82051217 12.03401895 0 0 Z " fill="#1C2A42" transform="translate(57,47)"/>
<path d="M0 0 C3.3 0.33 6.6 0.66 10 1 C10.96697501 4.86790003 10.979595 6.08162002 10.0625 9.75 C9.86785156 10.54921875 9.67320313 11.3484375 9.47265625 12.171875 C9.31667969 12.77515625 9.16070312 13.3784375 9 14 C10.32 14 11.64 14 13 14 C13.66 12.68 14.32 11.36 15 10 C15.99 10 16.98 10 18 10 C18.33 8.35 18.66 6.7 19 5 C25.37477818 3.7792978 31.47847442 4.08868856 37.9375 4.4375 C39.00291016 4.48970703 40.06832031 4.54191406 41.16601562 4.59570312 C43.77770229 4.72453072 46.3889221 4.85945498 49 5 C49.495 5.99 49.495 5.99 50 7 C49.26885986 7.01981934 48.53771973 7.03963867 47.78442383 7.06005859 C44.46009731 7.15552914 41.13638014 7.26511966 37.8125 7.375 C36.08676758 7.42140625 36.08676758 7.42140625 34.32617188 7.46875 C33.21435547 7.50742188 32.10253906 7.54609375 30.95703125 7.5859375 C29.93585205 7.6173584 28.91467285 7.6487793 27.86254883 7.68115234 C24.86581624 8.01494618 22.66322489 8.58749035 20 10 C19.67 10.99 19.34 11.98 19 13 C17.35448038 13.71727778 15.68577711 14.38325228 14 15 C13.34 15.66 12.68 16.32 12 17 C9.875 16.625 9.875 16.625 8 16 C8.0928125 15.33613281 8.185625 14.67226562 8.28125 13.98828125 C8.51395125 11.14184631 8.58285238 8.80283424 8 6 C5.61319509 3.6655373 2.98310296 2.43162307 0 1 C0 0.67 0 0.34 0 0 Z " fill="#445F6E" transform="translate(74,117)"/>
<path d="M0 0 C4.44115866 1.45598425 7.38910036 3.72881955 10.875 6.8125 C11.86242187 7.66457031 12.84984375 8.51664063 13.8671875 9.39453125 C16 12 16 12 16.05859375 14.59765625 C14.82422215 17.39890546 13.55539863 18.70080779 11.1875 20.625 C10.50042969 21.19476563 9.81335938 21.76453125 9.10546875 22.3515625 C8.41066406 22.89554688 7.71585938 23.43953125 7 24 C6.31035156 24.57105469 5.62070313 25.14210938 4.91015625 25.73046875 C3 27 3 27 0.25 26.6875 C-0.4925 26.460625 -1.235 26.23375 -2 26 C-2 25.34 -2 24.68 -2 24 C-2.56203125 23.73445313 -3.1240625 23.46890625 -3.703125 23.1953125 C-6.17930222 21.90668966 -8.43844882 20.43869639 -10.75 18.875 C-11.54921875 18.33617188 -12.3484375 17.79734375 -13.171875 17.2421875 C-13.77515625 16.83226563 -14.3784375 16.42234375 -15 16 C-13.68 15.67 -12.36 15.34 -11 15 C-11 15.66 -11 16.32 -11 17 C-8.96804269 18.08854856 -7.20150212 18.95725713 -4.9375 19.4375 C-3 20 -3 20 -1.5625 21.625 C-1.046875 22.07875 -0.53125 22.5325 0 23 C2.65466049 22.76956136 2.65466049 22.76956136 5 22 C5 21.34 5 20.68 5 20 C6.98 19.67 8.96 19.34 11 19 C11 16.69 11 14.38 11 12 C9.68 11.34 8.36 10.68 7 10 C7 9.01 7 8.02 7 7 C6.21625 6.773125 5.4325 6.54625 4.625 6.3125 C2 5 2 5 0.6875 2.375 C0.460625 1.59125 0.23375 0.8075 0 0 Z " fill="#21304D" transform="translate(144,41)"/>
<path d="M0 0 C0 0.99 0 1.98 0 3 C-7.11584171 6.78374093 -13.90166324 6.43451072 -21.81445312 6.43945312 C-22.80767578 6.45814453 -23.80089844 6.47683594 -24.82421875 6.49609375 C-25.72229248 6.49794678 -26.62036621 6.4997998 -27.5456543 6.50170898 C-30.62881068 6.89243742 -30.62881068 6.89243742 -34 11 C-21.46 11 -8.92 11 4 11 C4 11.33 4 11.66 4 12 C-1.49926424 12.02470469 -6.99849622 12.04286223 -12.49780273 12.05493164 C-14.36890221 12.05996279 -16.23999775 12.06678835 -18.11108398 12.07543945 C-20.79932628 12.08755829 -23.48751664 12.09324047 -26.17578125 12.09765625 C-27.01337479 12.10281754 -27.85096832 12.10797882 -28.71394348 12.11329651 C-32.06375742 12.11362064 -34.79946456 12.06684515 -38 11 C-37.8125 9.1875 -37.8125 9.1875 -37 7 C-33.36742912 4.33196441 -30.75795695 3.62619206 -26.2890625 3.59375 C-25.20882812 3.57183594 -24.12859375 3.54992187 -23.015625 3.52734375 C-21.89671875 3.51832031 -20.7778125 3.50929688 -19.625 3.5 C-9.4214327 3.46753901 -9.4214327 3.46753901 0 0 Z " fill="#84ABBD" transform="translate(131,120)"/>
<path d="M0 0 C1.05896484 -0.00773437 2.11792969 -0.01546875 3.20898438 -0.0234375 C8.85344529 -0.00935276 13.78582196 0.15924078 19.0625 2.25 C21.5 4.875 21.5 4.875 23.0625 7.25 C21.94101563 6.94255859 21.94101563 6.94255859 20.796875 6.62890625 C19.81203125 6.35949219 18.8271875 6.09007812 17.8125 5.8125 C16.35070312 5.41224609 16.35070312 5.41224609 14.859375 5.00390625 C13.93640625 4.75511719 13.0134375 4.50632812 12.0625 4.25 C11.42538086 4.07436523 10.78826172 3.89873047 10.13183594 3.71777344 C0.39191807 1.51606477 -10.5522924 2.67136898 -19.65234375 6.47265625 C-21.9375 7.25 -21.9375 7.25 -24.9375 6.25 C-22.29011084 4.7893715 -21.04301666 4.25 -17.9375 4.25 C-17.9375 3.59 -17.9375 2.93 -17.9375 2.25 C-12.05672036 -0.3183821 -6.29190322 -0.04578705 0 0 Z " fill="#283A55" transform="translate(105.9375,48.75)"/>
<path d="M0 0 C0.72680969 0.0028299 1.45361938 0.00565979 2.20245361 0.00857544 C4.51534751 0.01973727 6.82784888 0.04483399 9.140625 0.0703125 C10.71223398 0.08034749 12.28384904 0.08947244 13.85546875 0.09765625 C17.70067122 0.11966346 21.54558164 0.15416535 25.390625 0.1953125 C25.390625 0.5253125 25.390625 0.8553125 25.390625 1.1953125 C20.440625 1.1953125 15.490625 1.1953125 10.390625 1.1953125 C10.060625 2.1853125 9.730625 3.1753125 9.390625 4.1953125 C8.45210693 4.23289673 8.45210693 4.23289673 7.49462891 4.27124023 C4.66807881 4.38706523 1.84187331 4.50985235 -0.984375 4.6328125 C-2.46164063 4.69178711 -2.46164063 4.69178711 -3.96875 4.75195312 C-5.38027344 4.81479492 -5.38027344 4.81479492 -6.8203125 4.87890625 C-7.68962402 4.91556396 -8.55893555 4.95222168 -9.45458984 4.98999023 C-11.6577012 5.06932794 -11.6577012 5.06932794 -13.609375 6.1953125 C-12.70293206 3.92920516 -12.03082513 2.4900194 -10.00683594 1.07470703 C-6.6792099 -0.14587433 -3.49440648 -0.05144295 0 0 Z " fill="#C8E1EA" transform="translate(103.609375,72.8046875)"/>
<path d="M0 0 C4.59306496 1.4859916 7.43569245 3.85014682 11 7 C10.34 7.33 9.68 7.66 9 8 C8.01 7.67 7.02 7.34 6 7 C6 6.34 6 5.68 6 5 C-1.13768726 4.28623127 -6.03697578 7.67156261 -11.75 11.5 C-23.62192703 18.86013903 -35.49248877 18.49352908 -49 18 C-49 17.67 -49 17.34 -49 17 C-47.69546875 16.97421875 -46.3909375 16.9484375 -45.046875 16.921875 C-26.97313281 16.40434494 -13.57362957 12.39331396 0 0 Z " fill="#101621" transform="translate(144,138)"/>
<path d="M0 0 C0.66 0 1.32 0 2 0 C4.03153063 17.70046487 4.03153063 17.70046487 -0.578125 23.65234375 C-2 25 -2 25 -5 27 C-7.6875 26.625 -7.6875 26.625 -10 26 C-9 23 -9 23 -7.1875 22.0625 C-6.465625 21.711875 -5.74375 21.36125 -5 21 C-2.65459622 19.29465034 -1.21092765 17.97502889 -0.5847168 15.08032227 C-0.38242144 12.79807435 -0.29178776 10.54072916 -0.25 8.25 C-0.22035156 7.45722656 -0.19070312 6.66445312 -0.16015625 5.84765625 C-0.08972213 3.89897906 -0.04256518 1.94948505 0 0 Z " fill="#5F9BD1" transform="translate(133,96)"/>
<path d="M0 0 C1.65 1.32 3.3 2.64 5 4 C4.11981098 9.4889565 0.07849581 12.54843514 -4 16 C-6.89393774 17.91421923 -9.88776743 19.4736529 -13 21 C-13.75152344 21.40476563 -14.50304687 21.80953125 -15.27734375 22.2265625 C-17.14903741 23.22164014 -19.07139463 24.12028527 -21 25 C-21.66 24.67 -22.32 24.34 -23 24 C-22.67 23.34 -22.34 22.68 -22 22 C-18.9375 21.375 -18.9375 21.375 -16 21 C-16 20.34 -16 19.68 -16 19 C-14.68 19 -13.36 19 -12 19 C-11.67 18.01 -11.34 17.02 -11 16 C-10.030625 15.71125 -9.06125 15.4225 -8.0625 15.125 C-4.78871514 14.31138444 -4.78871514 14.31138444 -3.625 11.375 C-3.41875 10.59125 -3.2125 9.8075 -3 9 C-1.68 9 -0.36 9 1 9 C0.67 6.03 0.34 3.06 0 0 Z " fill="#23344E" transform="translate(155,146)"/>
<path d="M0 0 C3.625 -0.1875 3.625 -0.1875 7 0 C4.92284471 2.18580649 2.78641314 3.90881685 0.3125 5.625 C-9.19753577 12.76623565 -14.17668357 21.40377672 -19 32 C-20.12377697 28.69564916 -19.89554742 26.9493138 -18.5625 23.75 C-18.27503906 23.04359375 -17.98757812 22.3371875 -17.69140625 21.609375 C-17.46324219 21.07828125 -17.23507813 20.5471875 -17 20 C-16.34 20 -15.68 20 -15 20 C-15 19.01 -15 18.02 -15 17 C-13.68799596 15.64567325 -12.35368596 14.31266518 -11 13 C-10.67 12.01 -10.34 11.02 -10 10 C-9.34 9.67 -8.68 9.34 -8 9 C-7.67 8.01 -7.34 7.02 -7 6 C-6.01 6 -5.02 6 -4 6 C-4 5.01 -4 4.02 -4 3 C-3.34 3 -2.68 3 -2 3 C-1.34 2.01 -0.68 1.02 0 0 Z " fill="#24334C" transform="translate(74,56)"/>
<path d="M0 0 C0 0.66 0 1.32 0 2 C-1.51646821 2.65601744 -3.03846175 3.2992664 -4.5625 3.9375 C-5.40941406 4.29714844 -6.25632813 4.65679687 -7.12890625 5.02734375 C-17.88146666 8.67004789 -31.60509579 8.45495895 -42 4 C-42 3.34 -42 2.68 -42 2 C-39.69 2.33 -37.38 2.66 -35 3 C-35 3.66 -35 4.32 -35 5 C-23.20250744 4.80768562 -10.96504355 0 0 0 Z " fill="#2F4875" transform="translate(130,151)"/>
<path d="M0 0 C0.99 0 1.98 0 3 0 C3.14622024 3.20784721 3.23436651 6.41482961 3.3125 9.625 C3.35439453 10.52863281 3.39628906 11.43226562 3.43945312 12.36328125 C3.52325891 16.95583825 3.49972924 20.02532491 0.48046875 23.6484375 C-0.74736328 24.81246094 -0.74736328 24.81246094 -2 26 C-2.33 25.01 -2.66 24.02 -3 23 C-2.52949219 22.13117188 -2.05898437 21.26234375 -1.57421875 20.3671875 C0.42494279 16.09106529 0.34087115 12.76546033 0.1875 8.125 C0.17396484 7.34125 0.16042969 6.5575 0.14648438 5.75 C0.11141789 3.83303218 0.05762072 1.91642249 0 0 Z " fill="#92C3DD" transform="translate(135,96)"/>
<path d="M0 0 C4.46250798 1.45215068 7.34518823 3.7465286 10.8125 6.875 C11.78832031 7.73867188 12.76414063 8.60234375 13.76953125 9.4921875 C16 12 16 12 16 16 C14.0625 15.6875 14.0625 15.6875 12 15 C11.67 14.01 11.34 13.02 11 12 C8.99983534 10.79117904 8.99983534 10.79117904 7 10 C7 9.01 7 8.02 7 7 C6.21625 6.773125 5.4325 6.54625 4.625 6.3125 C2 5 2 5 0.6875 2.375 C0.460625 1.59125 0.23375 0.8075 0 0 Z " fill="#243350" transform="translate(144,41)"/>
<path d="M0 0 C1.58538318 2.51796153 2.0373656 3.67865586 1.6875 6.6875 C1 9 1 9 0 10 C-2.80951486 10.29573841 -4.41628976 10.38243085 -6.8125 8.8125 C-8.36678206 6.44017475 -8.22537188 4.77958655 -8 2 C-4.91190305 0.23537317 -3.76687864 0 0 0 Z M-5 3 C-5.33 3.99 -5.66 4.98 -6 6 C-4.68 6.33 -3.36 6.66 -2 7 C-2 5.68 -2 4.36 -2 3 C-2.99 3 -3.98 3 -5 3 Z " fill="#5A94C8" transform="translate(107,96)"/>
<path d="M0 0 C0.33 0 0.66 0 1 0 C1.13535156 0.78761719 1.27070312 1.57523437 1.41015625 2.38671875 C3.40837887 12.49748589 7.29015427 20.43523141 13 29 C8.32307692 27.52307692 8.32307692 27.52307692 6.6875 24.875 C6.460625 24.25625 6.23375 23.6375 6 23 C5.34 23 4.68 23 4 23 C3.322781 20.48159185 2.65808826 17.96091276 2 15.4375 C1.80921875 14.73302734 1.6184375 14.02855469 1.421875 13.30273438 C0.24165914 8.72939791 -0.19856973 4.72223635 0 0 Z " fill="#213651" transform="translate(52,108)"/>
<path d="M0 0 C0.99 0.33 1.98 0.66 3 1 C-3.28571429 5.42857143 -3.28571429 5.42857143 -7 6 C-7 6.66 -7 7.32 -7 8 C-5.35 8 -3.7 8 -2 8 C-2 8.33 -2 8.66 -2 9 C-9.425 10.485 -9.425 10.485 -17 12 C-16.67 10.68 -16.34 9.36 -16 8 C-14.328125 7.05859375 -14.328125 7.05859375 -12.25 6.4375 C-7.6528727 4.92431319 -4.02005013 2.68003342 0 0 Z " fill="#4A7794" transform="translate(93,73)"/>
<path d="M0 0 C0 3.38023517 -0.87455622 5.83468937 -2 9 C-1.67 9 -1.34 9 -1 9 C-0.80354907 12.12450532 -0.61936511 15.24961445 -0.4375 18.375 C-0.38142578 19.26445313 -0.32535156 20.15390625 -0.26757812 21.0703125 C-0.21923828 21.92109375 -0.17089844 22.771875 -0.12109375 23.6484375 C-0.0739624 24.43395996 -0.02683105 25.21948242 0.02172852 26.02880859 C0 28 0 28 -1 30 C-0.34 30.33 0.32 30.66 1 31 C0.01 31 -0.98 31 -2 31 C-4.43965284 26.24705084 -4.33256668 21.77582255 -4.3125 16.5625 C-4.32861328 15.72912109 -4.34472656 14.89574219 -4.36132812 14.03710938 C-4.36536882 8.92563206 -3.78608826 5.45068783 -1 1 C-0.67 0.67 -0.34 0.34 0 0 Z " fill="#35556F" transform="translate(74,84)"/>
<path d="M0 0 C0 0.66 0 1.32 0 2 C-0.85271484 2.14695313 -0.85271484 2.14695313 -1.72265625 2.296875 C-5.83737714 3.09371577 -9.24074512 3.94350617 -12.8125 6.1875 C-16 8 -16 8 -18.19921875 7.61328125 C-18.79347656 7.41089844 -19.38773438 7.20851562 -20 7 C-18.60823368 6.03576974 -17.2113777 5.07888398 -15.8125 4.125 C-15.03519531 3.59132812 -14.25789062 3.05765625 -13.45703125 2.5078125 C-8.5657947 -0.49380484 -5.65551754 -1.31523664 0 0 Z " fill="#2D4C78" transform="translate(150,143)"/>
<path d="M0 0 C5.48780488 -0.36585366 5.48780488 -0.36585366 7.75 1.25 C9 3 9 3 9.7578125 4.90625 C11.41152055 7.69363213 13.32032015 8.6678729 16.125 10.25 C17.03507812 10.77078125 17.94515625 11.2915625 18.8828125 11.828125 C19.58148438 12.21484375 20.28015625 12.6015625 21 13 C20.01 13.495 20.01 13.495 19 14 C11.9686697 10.66038485 5.62112975 6.36562385 0 1 C0 0.67 0 0.34 0 0 Z " fill="#1D314B" transform="translate(53,155)"/>
<path d="M0 0 C1.32 0.66 2.64 1.32 4 2 C5.3242287 2.36784131 6.65613912 2.71202981 8 3 C8 3.66 8 4.32 8 5 C7.360625 5.28875 6.72125 5.5775 6.0625 5.875 C3.84793921 6.82823451 3.84793921 6.82823451 3 9 C1.68 9 0.36 9 -1 9 C-0.67 6.03 -0.34 3.06 0 0 Z " fill="#5F9CD1" transform="translate(84,122)"/>
<path d="M0 0 C3.3 0.33 6.6 0.66 10 1 C11.00698122 5.02792488 10.86376936 6.79078668 10.0625 10.75 C9.86785156 11.73484375 9.67320313 12.7196875 9.47265625 13.734375 C9.31667969 14.48203125 9.16070312 15.2296875 9 16 C8.67 16 8.34 16 8 16 C8.0928125 15.33613281 8.185625 14.67226562 8.28125 13.98828125 C8.51395125 11.14184631 8.58285238 8.80283424 8 6 C5.61319509 3.6655373 2.98310296 2.43162307 0 1 C0 0.67 0 0.34 0 0 Z " fill="#42627F" transform="translate(74,117)"/>
<path d="M0 0 C3.625 -0.1875 3.625 -0.1875 7 0 C4.80838894 2.28064526 2.50936252 4.26270489 0 6.1875 C-0.680625 6.71730469 -1.36125 7.24710938 -2.0625 7.79296875 C-4 9 -4 9 -7 9 C-7 8.01 -7 7.02 -7 6 C-6.01 6 -5.02 6 -4 6 C-4 5.01 -4 4.02 -4 3 C-3.34 3 -2.68 3 -2 3 C-1.34 2.01 -0.68 1.02 0 0 Z " fill="#283D5E" transform="translate(74,56)"/>
<path d="M0 0 C2.52113092 -0.05447822 5.0410585 -0.09389852 7.5625 -0.125 C8.26697266 -0.14175781 8.97144531 -0.15851562 9.69726562 -0.17578125 C14.51891822 -0.22022044 18.42297438 0.47231996 23 2 C23 2.33 23 2.66 23 3 C15.06603268 3.24923458 7.7558343 2.70994772 0 1 C0 0.67 0 0.34 0 0 Z " fill="#28375A" transform="translate(108,32)"/>
<path d="M0 0 C-3.17320782 3.53586014 -5.16743695 5.58578031 -10 6 C-10.33 5.34 -10.66 4.68 -11 4 C-9.71264403 1.42528807 -8.71510189 1.29583343 -6.0625 0.3125 C-5.35222656 0.04050781 -4.64195312 -0.23148437 -3.91015625 -0.51171875 C-2 -1 -2 -1 0 0 Z " fill="#476478" transform="translate(134,117)"/>
<path d="M0 0 C-2.47651081 3.0708734 -3.66705258 3.9368548 -7.625 4.6875 C-8.73875 4.790625 -9.8525 4.89375 -11 5 C-11.99 5.495 -11.99 5.495 -13 6 C-12.06896676 3.67241689 -11.34617872 2.25642868 -9.3125 0.75 C-6.16454282 -0.27095909 -3.28456632 -0.12632947 0 0 Z " fill="#C2DBE5" transform="translate(103,73)"/>
<path d="M0 0 C9.59453303 2.89066059 9.59453303 2.89066059 13 6 C10.60042386 6.84119973 9.35077442 7.11193544 6.89453125 6.328125 C6.20746094 5.97234375 5.52039063 5.6165625 4.8125 5.25 C4.11769531 4.90453125 3.42289063 4.5590625 2.70703125 4.203125 C1 3 1 3 0 0 Z " fill="#222F4E" transform="translate(131,35)"/>
<path d="M0 0 C-5.03996638 3.35997759 -9.99709677 4.29282455 -16 4 C-15.34 3.67 -14.68 3.34 -14 3 C-14 2.34 -14 1.68 -14 1 C-9.27685687 0.22887459 -4.78478822 -0.09764874 0 0 Z " fill="#243956" transform="translate(132,171)"/>
<path d="M0 0 C0.33 0.66 0.66 1.32 1 2 C1.99 2.33 2.98 2.66 4 3 C3.01 3.33 2.02 3.66 1 4 C0.67 4.66 0.34 5.32 0 6 C0.99 6 1.98 6 3 6 C3.66 5.34 4.32 4.68 5 4 C4.67 5.65 4.34 7.3 4 9 C2.35 8.67 0.7 8.34 -1 8 C-1.625 5.6875 -1.625 5.6875 -2 3 C-1.34 2.01 -0.68 1.02 0 0 Z " fill="#447193" transform="translate(88,96)"/>
<path d="M0 0 C4.43458973 1.3937282 6.87378374 3.60582235 10 7 C8.35 6.67 6.7 6.34 5 6 C5 5.34 5 4.68 5 4 C4.071875 4 3.14375 4 2.1875 4 C0.125 4 -1.9375 4 -4 4 C-2.68 2.68 -1.36 1.36 0 0 Z " fill="#203146" transform="translate(145,139)"/>
<path d="M0 0 C2.31 0 4.62 0 7 0 C7.38133299 1.9914056 7.71325582 3.99279077 8 6 C7 7 7 7 4.4375 7.0625 C3.2309375 7.0315625 3.2309375 7.0315625 2 7 C1.34 4.69 0.68 2.38 0 0 Z M3 1 C3 2.32 3 3.64 3 5 C4.32 4.67 5.64 4.34 7 4 C6.67 3.01 6.34 2.02 6 1 C5.01 1 4.02 1 3 1 Z " fill="#496B8C" transform="translate(112,98)"/>
<path d="M0 0 C0.94875 0.350625 1.8975 0.70125 2.875 1.0625 C2.875 2.3825 2.875 3.7025 2.875 5.0625 C0.5489143 5.44313221 -1.78555264 5.77519945 -4.125 6.0625 C-5.125 5.0625 -5.125 5.0625 -5.1875 2.5 C-5.166875 1.695625 -5.14625 0.89125 -5.125 0.0625 C-3.125 -0.9375 -3.125 -0.9375 0 0 Z M-2.125 1.0625 C-2.455 2.0525 -2.785 3.0425 -3.125 4.0625 C-1.805 4.3925 -0.485 4.7225 0.875 5.0625 C0.875 3.7425 0.875 2.4225 0.875 1.0625 C-0.115 1.0625 -1.105 1.0625 -2.125 1.0625 Z " fill="#416A8B" transform="translate(104.125,97.9375)"/>
<path d="M0 0 C10.03056466 2.18222208 10.03056466 2.18222208 12.625 6.1875 C13.07875 7.115625 13.5325 8.04375 14 9 C12 8 10 7 8 6 C8 5.34 8 4.68 8 4 C7.236875 3.896875 6.47375 3.79375 5.6875 3.6875 C2.77363954 2.94209384 1.97049603 2.15541061 0 0 Z " fill="#314A75" transform="translate(125,52)"/>
<path d="M0 0 C0.33 0 0.66 0 1 0 C1 1.65 1 3.3 1 5 C1.66 5 2.32 5 3 5 C3 8.63 3 12.26 3 16 C-0.42724441 10.85913339 -0.1015597 5.99202204 0 0 Z " fill="#1A263B" transform="translate(32,108)"/>
<path d="M0 0 C2.31 0.33 4.62 0.66 7 1 C7 1.66 7 2.32 7 3 C9.31 3 11.62 3 14 3 C14 3.33 14 3.66 14 4 C4.58997722 4.3690205 4.58997722 4.3690205 0 2 C0 1.34 0 0.68 0 0 Z " fill="#263854" transform="translate(88,153)"/>
<path d="M0 0 C0.99 0.33 1.98 0.66 3 1 C2.6875 3.375 2.6875 3.375 2 6 C-1 8 -1 8 -4 8 C-4 7.34 -4 6.68 -4 6 C-3.01 5.34 -2.02 4.68 -1 4 C-0.27617533 1.94074861 -0.27617533 1.94074861 0 0 Z " fill="#5887B1" transform="translate(133,109)"/>
<path d="M0 0 C0 0.66 0 1.32 0 2 C-2.97 3.32 -5.94 4.64 -9 6 C-8 2 -8 2 -6.1875 0.75 C-4 0 -4 0 0 0 Z " fill="#41667C" transform="translate(85,79)"/>
<path d="M0 0 C0.99 0.33 1.98 0.66 3 1 C-2.14285714 6.57142857 -2.14285714 6.57142857 -6 7 C-6 6.01 -6 5.02 -6 4 C-4.68 4 -3.36 4 -2 4 C-1.34 2.68 -0.68 1.36 0 0 Z " fill="#5B809A" transform="translate(89,127)"/>
<path d="M0 0 C2.375 -0.125 2.375 -0.125 5 0 C7 2 7 2 7 6 C5.0625 5.6875 5.0625 5.6875 3 5 C2.67 4.01 2.34 3.02 2 2 C1.34 1.34 0.68 0.68 0 0 Z " fill="#293E57" transform="translate(153,51)"/>
<path d="M0 0 C-3.07999946 3.67230705 -5.2482602 4.56802365 -10 5 C-9.01 4.67 -8.02 4.34 -7 4 C-7 3.01 -7 2.02 -7 1 C-3.375 -1.125 -3.375 -1.125 0 0 Z " fill="#9DAFB6" transform="translate(145,126)"/>
<path d="M0 0 C0.66 0.33 1.32 0.66 2 1 C1.51789062 1.47050781 1.03578125 1.94101562 0.5390625 2.42578125 C-0.09257813 3.04839844 -0.72421875 3.67101563 -1.375 4.3125 C-2.00148438 4.92738281 -2.62796875 5.54226562 -3.2734375 6.17578125 C-5.18086607 8.08812528 -5.18086607 8.08812528 -7 11 C-7.66 11 -8.32 11 -9 11 C-7.59155282 7.78475695 -5.89655214 5.67816132 -3.375 3.25 C-2.74335937 2.63640625 -2.11171875 2.0228125 -1.4609375 1.390625 C-0.73777344 0.70226563 -0.73777344 0.70226563 0 0 Z " fill="#334774" transform="translate(59,47)"/>
<path d="M0 0 C4.10899581 1.12795963 8.07561214 2.33510818 12 4 C9.4137465 5.29312675 8.23583025 4.84290464 5.4375 4.25 C4.63183594 4.09015625 3.82617188 3.9303125 2.99609375 3.765625 C2.00802734 3.38664063 2.00802734 3.38664063 1 3 C0.67 2.01 0.34 1.02 0 0 Z " fill="#283C5F" transform="translate(73,167)"/>
<path d="M0 0 C4.95 1.98 4.95 1.98 10 4 C10 4.33 10 4.66 10 5 C7.03 4.67 4.06 4.34 1 4 C0.67 2.68 0.34 1.36 0 0 Z " fill="#1C2D44" transform="translate(78,148)"/>
<path d="M0 0 C2.475 0.495 2.475 0.495 5 1 C5.33 3.31 5.66 5.62 6 8 C1.125 3.375 1.125 3.375 0 0 Z " fill="#1E2D42" transform="translate(43,142)"/>
<path d="M0 0 C1.32 0 2.64 0 4 0 C4 1.32 4 2.64 4 4 C2.02 4 0.04 4 -2 4 C-1.34 2.68 -0.68 1.36 0 0 Z " fill="#5B99CB" transform="translate(115,94)"/>
<path d="M0 0 C2.02054804 1.64169528 4.02043058 3.30911778 6 5 C6 5.33 6 5.66 6 6 C4.33388095 6.042721 2.66617115 6.04063832 1 6 C0 5 0 5 -0.0625 2.4375 C-0.041875 1.633125 -0.02125 0.82875 0 0 Z " fill="#23324D" transform="translate(65,137)"/>
<path d="M0 0 C0.66666667 1.33333333 1.33333333 2.66666667 2 4 C2.391875 4.680625 2.78375 5.36125 3.1875 6.0625 C4 8 4 8 3 11 C-1.06153846 4.6 -1.06153846 4.6 -0.75 1.5625 C-0.5025 1.046875 -0.255 0.53125 0 0 Z " fill="#1B2A40" transform="translate(39,131)"/>
<path d="M0 0 C1.32 0 2.64 0 4 0 C3.1875 1.9375 3.1875 1.9375 2 4 C1.01 4.33 0.02 4.66 -1 5 C-0.67 3.35 -0.34 1.7 0 0 Z " fill="#273A5D" transform="translate(152,155)"/>
<path d="M0 0 C1.32 0.33 2.64 0.66 4 1 C4 2.32 4 3.64 4 5 C2.68 5.33 1.36 5.66 0 6 C0 4.02 0 2.04 0 0 Z " fill="#5892C0" transform="translate(92,98)"/>
<path d="M0 0 C2 1.5625 2 1.5625 4 4 C4.25 7.75 4.25 7.75 4 11 C2.03698408 7.49461443 1.04097612 3.86648272 0 0 Z " fill="#72B1DC" transform="translate(131,85)"/>
<path d="M0 0 C-0.66 0.66 -1.32 1.32 -2 2 C-3.32 2 -4.64 2 -6 2 C-6.33 2.99 -6.66 3.98 -7 5 C-7.99 4.67 -8.98 4.34 -10 4 C-6.58908673 0.88145073 -4.68377325 -0.53528837 0 0 Z " fill="#2E497A" transform="translate(139,166)"/>
</svg>
