<?xml version="1.0" encoding="UTF-8"?>
<svg version="1.1" xmlns="http://www.w3.org/2000/svg" width="496" height="503">
<path d="M0 0 C1.64745233 -0.00271663 3.29490344 -0.0062813 4.94235229 -0.01062012 C9.37822796 -0.01966582 13.81400963 -0.01623264 18.24988675 -0.00986195 C22.91406568 -0.004762 27.57823711 -0.00950434 32.24241638 -0.01263428 C40.07064239 -0.01626199 47.89883053 -0.01150591 55.72705078 -0.00195312 C64.75152162 0.00893292 73.77590209 0.00539992 82.80037075 -0.00560594 C90.57825856 -0.01470841 98.35611931 -0.01594977 106.13401073 -0.0107286 C110.76649037 -0.00762562 115.39892765 -0.0071533 120.0314045 -0.01380157 C124.38751415 -0.01961779 128.74350827 -0.01550065 133.09960556 -0.00401306 C134.68939333 -0.00138936 136.27919097 -0.00209192 137.86897469 -0.00653839 C157.88269836 -0.05731512 157.88269836 -0.05731512 164.20092773 2.25878906 C168.67461353 8.76099382 167.4149753 19.10175407 167.45092773 26.63378906 C167.48186523 28.24253906 167.48186523 28.24253906 167.51342773 29.88378906 C167.56372344 40.21955638 165.73035146 48.19903113 159.32592773 56.38378906 C158.43077564 57.57505488 157.53752996 58.76775572 156.64624023 59.96191406 C156.22246094 60.52458984 155.79868164 61.08726562 155.36206055 61.66699219 C153.84410782 63.74795345 152.51284495 65.9184558 151.20092773 68.13378906 C150.54092773 69.16503906 149.88092773 70.19628906 149.20092773 71.25878906 C148.54092773 71.25878906 147.88092773 71.25878906 147.20092773 71.25878906 C146.84514648 72.27005859 146.84514648 72.27005859 146.48217773 73.30175781 C144.89064927 76.97488905 142.8657869 80.21333658 140.70092773 83.57128906 C140.09571289 84.53905273 140.09571289 84.53905273 139.47827148 85.52636719 C138.44247032 87.14160168 137.32752225 88.70551789 136.20092773 90.25878906 C135.54092773 90.25878906 134.88092773 90.25878906 134.20092773 90.25878906 C133.96760742 90.94070312 133.73428711 91.62261719 133.49389648 92.32519531 C131.90696398 95.9257582 129.77440684 98.99910432 127.51342773 102.19628906 C126.51672184 103.62554987 125.52066397 105.05526274 124.52514648 106.48535156 C123.98937988 107.25266602 123.45361328 108.01998047 122.90161133 108.81054688 C119.84565766 113.20978653 116.83872411 117.64243583 113.82592773 122.07128906 C108.60225335 129.73966679 103.37061323 137.40249357 98.12646484 145.05688477 C95.18817445 149.34750001 92.25839266 153.64370783 89.33764648 157.94628906 C78.14386308 174.42725475 78.14386308 174.42725475 72.40405273 182.18847656 C69.16923712 186.69657067 66.067136 191.29319569 62.95092773 195.88378906 C56.88685535 204.81698226 50.72264592 213.67033274 44.46850586 222.47119141 C41.69240582 226.38617687 38.94874105 230.32393324 36.20092773 234.25878906 C53.49747964 235.16552659 70.77432006 235.44687061 88.09179688 235.4440918 C90.87474024 235.44401031 93.65751977 235.45101333 96.44042969 235.46459961 C127.78971079 235.64972631 127.78971079 235.64972631 158.76342773 231.25878906 C160.19356201 230.95328125 160.19356201 230.95328125 161.65258789 230.64160156 C170.28169202 228.68087964 178.68380146 226.04062088 187.07592773 223.25878906 C187.71031769 223.04963867 188.34470764 222.84048828 188.99832153 222.625 C195.10020712 220.5960325 200.99649245 218.4768551 206.70874023 215.50878906 C213.74844131 211.87211188 218.48516082 212.22951406 225.95092773 214.13378906 C236.71283396 216.82426562 247.25972404 217.42882486 258.32592773 217.82128906 C259.47319336 217.86447266 260.62045898 217.90765625 261.80249023 217.95214844 C264.60187916 218.05712552 267.40133989 218.15928371 270.20092773 218.25878906 C270.08317548 219.70623888 269.95322768 221.15270017 269.81811523 222.59863281 C269.71152588 223.80700806 269.71152588 223.80700806 269.6027832 225.03979492 C268.47011689 231.29423239 260.43478321 235.16472166 255.62670898 238.68457031 C253.20092773 240.25878906 253.20092773 240.25878906 251.20092773 240.25878906 C251.20092773 240.91878906 251.20092773 241.57878906 251.20092773 242.25878906 C249.63476562 243.44458008 249.63476562 243.44458008 247.42358398 244.76269531 C246.60873535 245.25157227 245.79388672 245.74044922 244.9543457 246.24414062 C244.06634277 246.76459961 243.17833984 247.28505859 242.26342773 247.82128906 C241.3547998 248.35850586 240.44617188 248.89572266 239.51000977 249.44921875 C185.9106735 280.90339374 130.42164378 291.44938124 68.94311523 291.39160156 C66.37631216 291.39227718 63.80950915 291.39324935 61.2427063 291.39450073 C55.90618206 291.39596291 50.56967528 291.3939682 45.2331543 291.38916016 C39.0952814 291.38369343 32.9574416 291.38550591 26.81956947 291.39098656 C20.85709796 291.39609357 14.89463661 291.39552593 8.93216324 291.39260483 C6.41811239 291.39194135 3.90406068 291.39274359 1.39001083 291.39508438 C-2.12111879 291.39763965 -5.63218557 291.39373128 -9.14331055 291.38818359 C-10.16480698 291.39020782 -11.18630341 291.39223206 -12.23875427 291.39431763 C-34.13054775 291.33062678 -34.13054775 291.33062678 -42.17407227 284.13378906 C-48.31735466 273.26490483 -46.80132456 258.34796205 -43.95214844 246.65112305 C-41.93779017 240.72490917 -38.45588862 235.9729239 -34.79907227 230.94628906 C-34.02478393 229.85076912 -33.25250736 228.75382474 -32.48217773 227.65551758 C-30.96180358 225.49308907 -29.43044702 223.34011139 -27.8918457 221.19042969 C-25.18234459 217.3948523 -22.5502657 213.54967112 -19.92407227 209.69628906 C-19.06677859 208.4509606 -18.20871779 207.20615985 -17.34985352 205.96191406 C-15.54967328 203.35133862 -13.75641126 200.73616068 -11.96704102 198.11816406 C-7.33421486 191.34540968 -2.65826133 184.62006119 2.19311523 178.00097656 C11.93108408 164.70126036 21.20545905 151.09070428 30.46264648 137.45410156 C35.70606113 129.74394179 41.00936027 122.09800183 46.51342773 114.57128906 C53.91285228 104.44503742 60.80862907 93.98523614 67.71142578 83.5168457 C68.86970061 81.76092308 70.03409575 80.00903703 71.20092773 78.25878906 C71.86092773 78.25878906 72.52092773 78.25878906 73.20092773 78.25878906 C73.30977295 77.68805664 73.41861816 77.11732422 73.53076172 76.52929688 C74.29460451 73.94141419 75.40986114 72.16141352 76.92358398 69.93066406 C77.46176758 69.13144531 77.99995117 68.33222656 78.55444336 67.50878906 C79.1184082 66.68378906 79.68237305 65.85878906 80.26342773 65.00878906 C80.83125977 64.16832031 81.3990918 63.32785156 81.98413086 62.46191406 C83.38459292 60.39064244 84.79031833 58.3231574 86.20092773 56.25878906 C85.53186433 56.25971086 84.86280092 56.26063265 84.17346287 56.26158237 C67.91666224 56.2836373 51.65986632 56.30020047 35.40305424 56.31060123 C27.54148383 56.31576426 19.67992339 56.32280707 11.81835938 56.33422852 C4.96867299 56.34417517 -1.88100619 56.35064244 -8.7306996 56.35287756 C-12.35976623 56.3541847 -15.98881221 56.35727075 -19.61787224 56.36451912 C-23.66257531 56.37253262 -27.70724215 56.37278021 -31.75195312 56.37231445 C-32.96395386 56.37590973 -34.17595459 56.379505 -35.42468262 56.38320923 C-36.51989731 56.38183456 -37.615112 56.3804599 -38.74351501 56.37904358 C-40.18012938 56.38042627 -40.18012938 56.38042627 -41.64576626 56.38183689 C-43.79907227 56.25878906 -43.79907227 56.25878906 -44.79907227 55.25878906 C-44.93745876 52.86632509 -45.01222952 50.50488946 -45.03735352 48.11035156 C-45.04542526 47.38318939 -45.05349701 46.65602722 -45.06181335 45.90682983 C-45.07568162 44.35832109 -45.08639144 42.80978143 -45.09423828 41.26123047 C-45.11125168 38.92775964 -45.15508218 36.5957816 -45.19946289 34.26269531 C-45.30383407 24.31168652 -45.02301208 14.42069189 -37.86157227 6.69628906 C-27.62183385 -1.45370682 -12.45545802 -0.0348855 0 0 Z " fill="#3C44EB" transform="translate(102.799072265625,114.7412109375)"/>
<path d="M0 0 C1.08867371 0.00223572 1.08867371 0.00223572 2.19934082 0.0045166 C12.9900831 0.044348 23.2644348 0.55062365 33.75 3.3125 C34.84957031 3.57933594 35.94914063 3.84617188 37.08203125 4.12109375 C46.22902189 6.60969459 54.40678681 10.91444914 62.75 15.3125 C63.74 15.8075 63.74 15.8075 64.75 16.3125 C64.75 16.9725 64.75 17.6325 64.75 18.3125 C65.46800781 18.54324219 66.18601562 18.77398437 66.92578125 19.01171875 C70.30032982 20.56597141 72.32655197 22.49035199 74.9375 25.125 C75.79730469 25.97707031 76.65710938 26.82914063 77.54296875 27.70703125 C79.67096788 30.21920014 80.75079488 32.20324162 81.75 35.3125 C82.41 35.3125 83.07 35.3125 83.75 35.3125 C96.6936458 59.64655409 98.84222296 85.00550444 91.125 111.375 C87.35252383 123.61183051 81.68101314 134.50952355 74.875 145.3125 C74.4936792 145.91884277 74.1123584 146.52518555 73.71948242 147.14990234 C72.78699487 148.57660202 71.77536544 149.95101892 70.75 151.3125 C70.09 151.3125 69.43 151.3125 68.75 151.3125 C68.48703125 151.88871094 68.2240625 152.46492187 67.953125 153.05859375 C63.17606398 162.00782819 54.35408962 168.14137173 46.39404297 174.08154297 C44.99062772 175.13233294 43.60471153 176.20642686 42.22265625 177.28515625 C34.07168857 183.40186533 23.00354973 189.90238511 12.75 191.3125 C13.88810877 187.48431594 15.37321214 184.01114724 17.125 180.4375 C21.1018984 171.87187268 22.96708588 162.54799515 24.75 153.3125 C23.55503906 153.63734375 22.36007812 153.9621875 21.12890625 154.296875 C14.67794691 155.72342041 8.26656355 155.61189301 1.6875 155.5625 C0.39561768 155.55573242 -0.89626465 155.54896484 -2.22729492 155.54199219 C-20.94500733 155.33952401 -39.45540673 153.07140271 -56.25 144.3125 C-57.02730469 143.92191406 -57.80460937 143.53132812 -58.60546875 143.12890625 C-74.59564948 134.73474941 -85.43963231 121.51660796 -91 104.3125 C-96.9248778 82.22567743 -95.07854425 59.96741025 -85.25 39.3125 C-84.59 39.3125 -83.93 39.3125 -83.25 39.3125 C-83.105625 38.69375 -82.96125 38.075 -82.8125 37.4375 C-82.25 35.3125 -82.25 35.3125 -81.25 33.3125 C-80.59 33.3125 -79.93 33.3125 -79.25 33.3125 C-78.981875 32.735 -78.71375 32.1575 -78.4375 31.5625 C-77.22070811 29.25699957 -75.94666121 27.29193808 -74.25 25.3125 C-73.59 25.3125 -72.93 25.3125 -72.25 25.3125 C-71.92 24.3225 -71.59 23.3325 -71.25 22.3125 C-69.27851851 20.74587632 -67.33704053 19.33200112 -65.25 17.9375 C-64.70988281 17.56367188 -64.16976563 17.18984375 -63.61328125 16.8046875 C-55.95938076 11.59503961 -48.41549813 7.68329939 -39.5 5.125 C-38.2934375 4.7547168 -38.2934375 4.7547168 -37.0625 4.37695312 C-24.83205661 0.77127995 -12.67022974 -0.06444822 0 0 Z M-46.25 73.3125 C-48.62040308 75.68290308 -48.59465793 76.37552753 -48.6875 79.625 C-48.59933872 83.27487692 -48.33172817 84.19711905 -46.125 87.3125 C-42.88483846 89.56652542 -41.1990955 90.39309379 -37.25 90.3125 C-34.62776138 88.82821399 -32.3852735 87.4477735 -30.25 85.3125 C-29.74742154 80.7892939 -29.40185734 76.70345397 -31.8125 72.75 C-37.15102459 69.60163934 -41.34170012 69.52609723 -46.25 73.3125 Z M-6.25 73.3125 C-8.28513602 76.40510866 -8.40697031 78.44510191 -7.875 82.0625 C-7.76414062 82.86171875 -7.65328125 83.6609375 -7.5390625 84.484375 C-7.44367188 85.08765625 -7.34828125 85.6909375 -7.25 86.3125 C-6.59 86.3125 -5.93 86.3125 -5.25 86.3125 C-5.25 86.9725 -5.25 87.6325 -5.25 88.3125 C-2.57207206 90.133491 -1.1095082 90.3099456 2.1875 90.25 C6.54134873 89.10425034 8.16458188 87.99476218 10.75 84.3125 C11.45439501 81.47773961 11.45993393 79.14651045 10.75 76.3125 C8.35161784 72.99708936 6.67940514 71.62889324 2.8125 70.3125 C-1.02523843 70.3125 -3.0592269 71.20949046 -6.25 73.3125 Z M34.75 73.3125 C32.18400044 76.39169947 31.74154015 77.83028879 31.8125 81.875 C32.82563312 85.58982142 33.766553 86.96190539 36.75 89.3125 C39.60324437 90.73912219 41.58454549 90.62283868 44.75 90.3125 C47.44990662 88.51256226 49.2918865 87.228727 50.75 84.3125 C51.25094516 80.05857223 51.49696179 76.50763886 49.1875 72.8125 C43.99303555 69.61590649 39.48589061 69.36592449 34.75 73.3125 Z " fill="#3DB4F6" transform="translate(361.25,167.6875)"/>
<path d="M0 0 C1.64745233 -0.00271663 3.29490344 -0.0062813 4.94235229 -0.01062012 C9.37822796 -0.01966582 13.81400963 -0.01623264 18.24988675 -0.00986195 C22.91406568 -0.004762 27.57823711 -0.00950434 32.24241638 -0.01263428 C40.07064239 -0.01626199 47.89883053 -0.01150591 55.72705078 -0.00195312 C64.75152162 0.00893292 73.77590209 0.00539992 82.80037075 -0.00560594 C90.57825856 -0.01470841 98.35611931 -0.01594977 106.13401073 -0.0107286 C110.76649037 -0.00762562 115.39892765 -0.0071533 120.0314045 -0.01380157 C124.38751415 -0.01961779 128.74350827 -0.01550065 133.09960556 -0.00401306 C134.68939333 -0.00138936 136.27919097 -0.00209192 137.86897469 -0.00653839 C157.88269836 -0.05731512 157.88269836 -0.05731512 164.20092773 2.25878906 C168.67461353 8.76099382 167.4149753 19.10175407 167.45092773 26.63378906 C167.48186523 28.24253906 167.48186523 28.24253906 167.51342773 29.88378906 C167.56372344 40.21955638 165.73035146 48.19903113 159.32592773 56.38378906 C158.43077564 57.57505488 157.53752996 58.76775572 156.64624023 59.96191406 C156.22246094 60.52458984 155.79868164 61.08726562 155.36206055 61.66699219 C153.84410782 63.74795345 152.51284495 65.9184558 151.20092773 68.13378906 C150.54092773 69.16503906 149.88092773 70.19628906 149.20092773 71.25878906 C148.54092773 71.25878906 147.88092773 71.25878906 147.20092773 71.25878906 C146.84514648 72.27005859 146.84514648 72.27005859 146.48217773 73.30175781 C144.89064927 76.97488905 142.8657869 80.21333658 140.70092773 83.57128906 C140.09571289 84.53905273 140.09571289 84.53905273 139.47827148 85.52636719 C138.44247032 87.14160168 137.32752225 88.70551789 136.20092773 90.25878906 C135.54092773 90.25878906 134.88092773 90.25878906 134.20092773 90.25878906 C133.87092773 90.91878906 133.54092773 91.57878906 133.20092773 92.25878906 C133.20092773 91.26878906 133.20092773 90.27878906 133.20092773 89.25878906 C133.86092773 89.25878906 134.52092773 89.25878906 135.20092773 89.25878906 C135.32467773 88.20691406 135.44842773 87.15503906 135.57592773 86.07128906 C136.4551914 80.70778071 138.32354772 76.83643908 141.20092773 72.25878906 C134.46097622 73.51916 128.83536017 75.54410177 122.70092773 78.57128906 C121.51563477 79.13879883 121.51563477 79.13879883 120.30639648 79.71777344 C115.52293636 82.03121446 110.89450682 84.52148581 106.32397461 87.23217773 C103.96407117 88.37332239 101.78056267 88.84565321 99.20092773 89.25878906 C98.87092773 90.24878906 98.54092773 91.23878906 98.20092773 92.25878906 C96.41881061 93.13237589 94.63360025 93.99995118 92.83764648 94.84472656 C80.96807679 101.21033283 69.97943827 110.45819517 61.48999023 120.84472656 C59.68444822 122.82535144 57.50521769 123.90993641 55.20092773 125.25878906 C51.86104338 128.26619625 48.83560848 131.41254807 46.13842773 135.00878906 C43.78573265 137.7409511 41.5114183 138.89141252 38.20092773 140.25878906 C37.54092773 140.25878906 36.88092773 140.25878906 36.20092773 140.25878906 C36.20092773 140.91878906 36.20092773 141.57878906 36.20092773 142.25878906 C33.89092773 142.25878906 31.58092773 142.25878906 29.20092773 142.25878906 C29.20092773 143.90878906 29.20092773 145.55878906 29.20092773 147.25878906 C28.21092773 147.58878906 27.22092773 147.91878906 26.20092773 148.25878906 C25.52936157 150.19497331 25.52936157 150.19497331 25.20092773 152.25878906 C24.87092773 152.91878906 24.54092773 153.57878906 24.20092773 154.25878906 C23.54092773 154.25878906 22.88092773 154.25878906 22.20092773 154.25878906 C21.87092773 155.57878906 21.54092773 156.89878906 21.20092773 158.25878906 C20.54092773 158.25878906 19.88092773 158.25878906 19.20092773 158.25878906 C18.76780273 159.46535156 18.76780273 159.46535156 18.32592773 160.69628906 C17.20092773 163.25878906 17.20092773 163.25878906 15.20092773 164.25878906 C14.93280273 165.53753906 14.66467773 166.81628906 14.38842773 168.13378906 C13.64892615 171.42900814 13.43292316 172.06739283 10.70092773 174.32128906 C9.87592773 174.63066406 9.05092773 174.94003906 8.20092773 175.25878906 C7.54092773 174.92878906 6.88092773 174.59878906 6.20092773 174.25878906 C5.87092773 175.24878906 5.54092773 176.23878906 5.20092773 177.25878906 C4.54092773 176.92878906 3.88092773 176.59878906 3.20092773 176.25878906 C3.70523315 175.5665625 3.70523315 175.5665625 4.21972656 174.86035156 C12.58224208 163.36774833 20.74669308 151.76303059 28.73120117 140.00537109 C34.54740152 131.44213459 40.40159545 122.92686048 46.51342773 114.57128906 C53.91299154 104.4451481 60.8086356 93.98522623 67.71142578 83.5168457 C68.86970061 81.76092308 70.03409575 80.00903703 71.20092773 78.25878906 C71.86092773 78.25878906 72.52092773 78.25878906 73.20092773 78.25878906 C73.30977295 77.68805664 73.41861816 77.11732422 73.53076172 76.52929688 C74.29460451 73.94141419 75.40986114 72.16141352 76.92358398 69.93066406 C77.46176758 69.13144531 77.99995117 68.33222656 78.55444336 67.50878906 C79.1184082 66.68378906 79.68237305 65.85878906 80.26342773 65.00878906 C80.83125977 64.16832031 81.3990918 63.32785156 81.98413086 62.46191406 C83.38459292 60.39064244 84.79031833 58.3231574 86.20092773 56.25878906 C85.53186433 56.25971086 84.86280092 56.26063265 84.17346287 56.26158237 C67.91666224 56.2836373 51.65986632 56.30020047 35.40305424 56.31060123 C27.54148383 56.31576426 19.67992339 56.32280707 11.81835938 56.33422852 C4.96867299 56.34417517 -1.88100619 56.35064244 -8.7306996 56.35287756 C-12.35976623 56.3541847 -15.98881221 56.35727075 -19.61787224 56.36451912 C-23.66257531 56.37253262 -27.70724215 56.37278021 -31.75195312 56.37231445 C-32.96395386 56.37590973 -34.17595459 56.379505 -35.42468262 56.38320923 C-36.51989731 56.38183456 -37.615112 56.3804599 -38.74351501 56.37904358 C-40.18012938 56.38042627 -40.18012938 56.38042627 -41.64576626 56.38183689 C-43.79907227 56.25878906 -43.79907227 56.25878906 -44.79907227 55.25878906 C-44.93745876 52.86632509 -45.01222952 50.50488946 -45.03735352 48.11035156 C-45.04542526 47.38318939 -45.05349701 46.65602722 -45.06181335 45.90682983 C-45.07568162 44.35832109 -45.08639144 42.80978143 -45.09423828 41.26123047 C-45.11125168 38.92775964 -45.15508218 36.5957816 -45.19946289 34.26269531 C-45.30383407 24.31168652 -45.02301208 14.42069189 -37.86157227 6.69628906 C-27.62183385 -1.45370682 -12.45545802 -0.0348855 0 0 Z " fill="#588FF7" transform="translate(102.799072265625,114.7412109375)"/>
<path d="M0 0 C-1.40191353 2.99254618 -3.03367489 5.5954611 -5 8.25 C-5.515625 8.95640625 -6.03125 9.6628125 -6.5625 10.390625 C-7.036875 10.92171875 -7.51125 11.4528125 -8 12 C-8.66 12 -9.32 12 -10 12 C-11.26012096 14.42330955 -12.3659889 16.85927829 -13.4375 19.375 C-15.15888288 23.36860828 -16.88302646 27.26482728 -19.2421875 30.9296875 C-27.0173047 43.0756814 -32.29155393 57.10250656 -36 71 C-36.3403125 72.2478125 -36.680625 73.495625 -37.03125 74.78125 C-38.13668571 79.25545601 -38.6747724 83.73148047 -39.125 88.3125 C-39.2502002 89.57731201 -39.2502002 89.57731201 -39.37792969 90.86767578 C-40.29798028 100.61457913 -39.99823417 109.88287595 -39.125 119.625 C-39.04668945 120.50849121 -38.96837891 121.39198242 -38.88769531 122.30224609 C-38.0662941 131.9730473 -38.0662941 131.9730473 -34.94189453 141.05322266 C-33.64308414 143.73770012 -33.86646501 146.06223029 -34 149 C-33.34 149.33 -32.68 149.66 -32 150 C-37.6918222 150.24301819 -43.38377269 150.45772157 -49.07763672 150.64697266 C-51.01184109 150.71516265 -52.9457955 150.7908984 -54.87939453 150.87451172 C-57.66927025 150.99381089 -60.45893778 151.08536583 -63.25 151.171875 C-64.533302 151.23565338 -64.533302 151.23565338 -65.8425293 151.30072021 C-72.93211168 151.47637557 -78.07000248 149.62157673 -83.375 144.875 C-89.51828239 134.00611577 -88.00225229 119.08917299 -85.15307617 107.39233398 C-83.1387179 101.46612011 -79.65681635 96.71413484 -76 91.6875 C-75.22571167 90.59198006 -74.4534351 89.49503568 -73.68310547 88.39672852 C-72.16273131 86.23430001 -70.63137475 84.08132233 -69.09277344 81.93164062 C-66.38326981 78.13605971 -63.75131619 74.29080134 -61.125 70.4375 C-60.26896953 69.19480218 -59.41220989 67.9526063 -58.5546875 66.7109375 C-56.7379148 64.07668755 -54.93259515 61.43494847 -53.1328125 58.7890625 C-37.44682552 35.76463297 -37.44682552 35.76463297 -33 34.375 C-32.34 34.25125 -31.68 34.1275 -31 34 C-30.01 33.67 -29.02 33.34 -28 33 C-27.9175 31.7625 -27.835 30.525 -27.75 29.25 C-27.27066531 25.26024357 -26.17004229 23.57565936 -23 21 C-22.67 20.34 -22.34 19.68 -22 19 C-21.34 19 -20.68 19 -20 19 C-19.67 17.68 -19.34 16.36 -19 15 C-18.34 15 -17.68 15 -17 15 C-16.71125 14.030625 -16.4225 13.06125 -16.125 12.0625 C-15 9 -15 9 -13 8 C-12.34444881 5.47266765 -12.34444881 5.47266765 -12 3 C-7.25 1.875 -7.25 1.875 -5 3 C-5 2.34 -5 1.68 -5 1 C-3 0 -3 0 0 0 Z " fill="#4A4DF4" transform="translate(144,254)"/>
<path d="M0 0 C18.02023506 -0.34580408 18.02023506 -0.34580408 25.625 0.9375 C36.29991829 2.73793478 47.19932536 2.68704759 58 3 C57.88224775 4.44744982 57.75229994 5.89391111 57.6171875 7.33984375 C57.54612793 8.14542725 57.47506836 8.95101074 57.40185547 9.78100586 C56.26918916 16.03544333 48.23385547 19.9059326 43.42578125 23.42578125 C41 25 41 25 39 25 C39 25.66 39 26.32 39 27 C36.734375 28.76171875 36.734375 28.76171875 33.75 30.6875 C32.77546875 31.33074219 31.8009375 31.97398437 30.796875 32.63671875 C28 34 28 34 25.640625 33.70703125 C25.09921875 33.47371094 24.5578125 33.24039063 24 33 C24.33 32.34 24.66 31.68 25 31 C24.01 30.67 23.02 30.34 22 30 C20.45703125 28.43359375 20.45703125 28.43359375 18.8125 26.4375 C15.58173558 22.60614476 12.13120266 19.11928602 8.50390625 15.6640625 C7 14 7 14 7 12 C6.42765625 11.73445313 5.8553125 11.46890625 5.265625 11.1953125 C2.8923988 9.94323109 0.87786714 8.5063648 -1.25 6.875 C-1.95640625 6.33617187 -2.6628125 5.79734375 -3.390625 5.2421875 C-3.92171875 4.83226562 -4.4528125 4.42234375 -5 4 C-2 2 -2 2 0 2 C0 1.34 0 0.68 0 0 Z " fill="#2923DE" transform="translate(315,330)"/>
<path d="M0 0 C1.08867371 0.00223572 1.08867371 0.00223572 2.19934082 0.0045166 C12.9900831 0.044348 23.2644348 0.55062365 33.75 3.3125 C34.84957031 3.57933594 35.94914063 3.84617188 37.08203125 4.12109375 C46.22902189 6.60969459 54.40678681 10.91444914 62.75 15.3125 C63.74 15.8075 63.74 15.8075 64.75 16.3125 C64.75 16.9725 64.75 17.6325 64.75 18.3125 C65.46800781 18.54324219 66.18601562 18.77398437 66.92578125 19.01171875 C70.30032982 20.56597141 72.32655197 22.49035199 74.9375 25.125 C75.79730469 25.97707031 76.65710938 26.82914063 77.54296875 27.70703125 C79.67096788 30.21920014 80.75079488 32.20324162 81.75 35.3125 C82.41 35.3125 83.07 35.3125 83.75 35.3125 C84.08 36.6325 84.41 37.9525 84.75 39.3125 C83.76 38.9825 82.77 38.6525 81.75 38.3125 C81.08333333 36.97916667 80.41666667 35.64583333 79.75 34.3125 C76.94069959 31.20748376 74.53087392 29.06790575 70.75 27.3125 C70.42 26.6525 70.09 25.9925 69.75 25.3125 C67.63672575 24.40524566 67.63672575 24.40524566 65.1875 23.6875 C63.94806641 23.29691406 63.94806641 23.29691406 62.68359375 22.8984375 C61.72646484 22.60839844 61.72646484 22.60839844 60.75 22.3125 C61.08 21.3225 61.41 20.3325 61.75 19.3125 C61.42 18.3225 61.09 17.3325 60.75 16.3125 C58.79310963 15.95044536 56.83442332 15.59808579 54.875 15.25 C53.78445313 15.05277344 52.69390625 14.85554687 51.5703125 14.65234375 C48.80346717 14.05618101 48.80346717 14.05618101 46.75 15.3125 C46.6778125 14.68730469 46.605625 14.06210938 46.53125 13.41796875 C45.95456669 11.13770375 45.95456669 11.13770375 43.78125 10.30078125 C38.08558244 8.78017865 32.63021461 7.78671086 26.75 7.3125 C26.75 6.6525 26.75 5.9925 26.75 5.3125 C24.77 5.3125 22.79 5.3125 20.75 5.3125 C20.42 5.9725 20.09 6.6325 19.75 7.3125 C18.76 4.8375 18.76 4.8375 17.75 2.3125 C5.54 2.3125 -6.67 2.3125 -19.25 2.3125 C-19.25 2.9725 -19.25 3.6325 -19.25 4.3125 C-20.14460938 4.39886719 -21.03921875 4.48523438 -21.9609375 4.57421875 C-29.09794081 5.40357201 -34.83463797 6.55170796 -41.06640625 10.19140625 C-43.47100838 11.42596942 -45.59566431 11.86152064 -48.25 12.3125 C-50.25405227 12.96688441 -52.25428677 13.63310826 -54.25 14.3125 C-55.57911682 14.66226758 -56.91082739 15.00346017 -58.25 15.3125 C-58.25 15.9725 -58.25 16.6325 -58.25 17.3125 C-59.90848177 18.32601664 -61.57665961 19.32370795 -63.25 20.3125 C-64.61984198 21.60829647 -65.9651049 22.93242749 -67.25 24.3125 C-67.91 23.9825 -68.57 23.6525 -69.25 23.3125 C-69.25 23.9725 -69.25 24.6325 -69.25 25.3125 C-69.91 25.6425 -70.57 25.9725 -71.25 26.3125 C-71.58 27.3025 -71.91 28.2925 -72.25 29.3125 C-72.91 29.3125 -73.57 29.3125 -74.25 29.3125 C-74.58 30.3025 -74.91 31.2925 -75.25 32.3125 C-75.86875 32.84875 -76.4875 33.385 -77.125 33.9375 C-79.7679698 36.89140742 -80.39935302 39.59049143 -81.34375 43.38671875 C-82.25 45.3125 -82.25 45.3125 -84.34375 46.08203125 C-84.9728125 46.15808594 -85.601875 46.23414063 -86.25 46.3125 C-86.25 48.2925 -86.25 50.2725 -86.25 52.3125 C-87.735 52.8075 -87.735 52.8075 -89.25 53.3125 C-90.53997894 74.8352687 -90.53997894 74.8352687 -89.25 96.3125 C-88.92 96.6425 -88.59 96.9725 -88.25 97.3125 C-88.105625 98.4675 -87.96125 99.6225 -87.8125 100.8125 C-87.626875 101.9675 -87.44125 103.1225 -87.25 104.3125 C-86.59 104.6425 -85.93 104.9725 -85.25 105.3125 C-84.84270772 107.63406597 -84.50561323 109.9693787 -84.25 112.3125 C-83.59 112.3125 -82.93 112.3125 -82.25 112.3125 C-82.06824219 112.86679687 -81.88648438 113.42109375 -81.69921875 113.9921875 C-81.44785156 114.71664062 -81.19648438 115.44109375 -80.9375 116.1875 C-80.69386719 116.90679687 -80.45023437 117.62609375 -80.19921875 118.3671875 C-79.28664453 120.65244905 -79.28664453 120.65244905 -76.25 122.3125 C-76.09660156 122.93898438 -75.94320313 123.56546875 -75.78515625 124.2109375 C-75.082434 126.97053291 -73.76753726 128.02974865 -71.6875 129.9375 C-70.50665005 131.02568768 -69.35189664 132.14443202 -68.25 133.3125 C-68.25 133.9725 -68.25 134.6325 -68.25 135.3125 C-67.59 135.3125 -66.93 135.3125 -66.25 135.3125 C-66.58 135.9725 -66.91 136.6325 -67.25 137.3125 C-79.92444445 129.4920981 -87.85701831 116.02894063 -91.66015625 101.8515625 C-96.64782919 80.38144717 -94.74284803 59.26193697 -85.25 39.3125 C-84.59 39.3125 -83.93 39.3125 -83.25 39.3125 C-83.105625 38.69375 -82.96125 38.075 -82.8125 37.4375 C-82.25 35.3125 -82.25 35.3125 -81.25 33.3125 C-80.59 33.3125 -79.93 33.3125 -79.25 33.3125 C-78.981875 32.735 -78.71375 32.1575 -78.4375 31.5625 C-77.22070811 29.25699957 -75.94666121 27.29193808 -74.25 25.3125 C-73.59 25.3125 -72.93 25.3125 -72.25 25.3125 C-71.92 24.3225 -71.59 23.3325 -71.25 22.3125 C-69.27851851 20.74587632 -67.33704053 19.33200112 -65.25 17.9375 C-64.70988281 17.56367188 -64.16976563 17.18984375 -63.61328125 16.8046875 C-55.95938076 11.59503961 -48.41549813 7.68329939 -39.5 5.125 C-38.2934375 4.7547168 -38.2934375 4.7547168 -37.0625 4.37695312 C-24.83205661 0.77127995 -12.67022974 -0.06444822 0 0 Z " fill="#69DAEB" transform="translate(361.25,167.6875)"/>
<path d="M0 0 C0.99 1.485 0.99 1.485 2 3 C1.34 4.32 0.68 5.64 0 7 C-0.99 7 -1.98 7 -3 7 C-3.33 7.99 -3.66 8.98 -4 10 C-4.66 10 -5.32 10 -6 10 C-6.0928125 10.99 -6.0928125 10.99 -6.1875 12 C-7.13618681 15.50284361 -8.74765474 17.91852578 -10.72265625 20.9296875 C-12.51644823 23.83705676 -13.74419349 26.82743618 -15 30 C-14.34 30.33 -13.68 30.66 -13 31 C-13 32.32 -13 33.64 -13 35 C-13.99 35 -14.98 35 -16 35 C-16 36.32 -16 37.64 -16 39 C-11.48954059 36.53974941 -7.81495577 33.39717963 -4 30 C-3.34 30.33 -2.68 30.66 -2 31 C-3.22062521 32.44475986 -4.45192126 33.88050764 -5.6875 35.3125 C-6.37199219 36.11300781 -7.05648437 36.91351563 -7.76171875 37.73828125 C-10.03260724 40.03294868 -12.21949798 41.39279899 -15 43 C-16.89019612 44.61524534 -16.89019612 44.61524534 -18.5625 46.375 C-19.160625 46.98601562 -19.75875 47.59703125 -20.375 48.2265625 C-22.14651469 50.10169188 -22.14651469 50.10169188 -24.0625 52.75 C-26.41519508 55.48216203 -28.68950943 56.63262346 -32 58 C-32.66 58 -33.32 58 -34 58 C-34 58.66 -34 59.32 -34 60 C-36.31 60 -38.62 60 -41 60 C-41 61.65 -41 63.3 -41 65 C-42.485 65.495 -42.485 65.495 -44 66 C-44.67156616 67.93618425 -44.67156616 67.93618425 -45 70 C-45.33 70.66 -45.66 71.32 -46 72 C-46.66 72 -47.32 72 -48 72 C-48.33 73.32 -48.66 74.64 -49 76 C-49.66 76 -50.32 76 -51 76 C-51.28875 76.804375 -51.5775 77.60875 -51.875 78.4375 C-53 81 -53 81 -55 82 C-55.268125 83.27875 -55.53625 84.5575 -55.8125 85.875 C-56.55200159 89.17021907 -56.76800457 89.80860377 -59.5 92.0625 C-60.325 92.371875 -61.15 92.68125 -62 93 C-62.66 92.67 -63.32 92.34 -64 92 C-64.33 92.99 -64.66 93.98 -65 95 C-65.66 94.67 -66.32 94.34 -67 94 C-66.49569458 93.30777344 -66.49569458 93.30777344 -65.98120117 92.6015625 C-57.61868565 81.10895927 -49.45423466 69.50424152 -41.46972656 57.74658203 C-35.10520871 48.37605344 -28.66647911 39.08553979 -21.96777344 29.95019531 C-18.9254347 25.76905261 -16.00587879 21.53125806 -13.17578125 17.203125 C-12.54148193 16.23358887 -11.90718262 15.26405273 -11.25366211 14.26513672 C-10.01963506 12.36670758 -8.79486594 10.46222208 -7.58032227 8.55126953 C-7.02530029 7.69645996 -6.47027832 6.84165039 -5.8984375 5.9609375 C-5.41036621 5.19571777 -4.92229492 4.43049805 -4.41943359 3.64208984 C-3.95102051 3.1002002 -3.48260742 2.55831055 -3 2 C-2.01 2 -1.02 2 0 2 C0 1.34 0 0.68 0 0 Z " fill="#5172F0" transform="translate(173,197)"/>
<path d="M0 0 C0.33 0.66 0.66 1.32 1 2 C0.67 2.99 0.34 3.98 0 5 C-0.66 5 -1.32 5 -2 5 C-4.05137315 8.48216283 -4.56818592 11.77275657 -5.125 15.75 C-5.29257812 16.92046875 -5.46015625 18.0909375 -5.6328125 19.296875 C-5.75398438 20.18890625 -5.87515625 21.0809375 -6 22 C-5.34 22 -4.68 22 -4 22 C-4.350625 22.9075 -4.70125 23.815 -5.0625 24.75 C-6.2200565 27.74194478 -6.2200565 27.74194478 -5.5625 29.75 C-4.76599999 32.93600002 -4.90715481 35.972719 -4.9375 39.25 C-4.94652344 40.51328125 -4.95554687 41.7765625 -4.96484375 43.078125 C-4.97644531 44.04234375 -4.98804688 45.0065625 -5 46 C0.97896875 46.15455567 6.95816243 46.29797877 12.9375 46.4375 C14.37639587 46.4715947 14.37639587 46.4715947 15.84436035 46.50637817 C30.31215785 46.84278745 44.77870378 47.05490902 59.24952888 47.19225883 C62.01633316 47.21871941 64.7831228 47.24639096 67.5499115 47.27442932 C69.40249607 47.29308671 71.25508091 47.31171764 73.10766602 47.33032227 C74.02652431 47.3395575 74.9453826 47.34879274 75.89208508 47.35830784 C81.46705674 47.41326355 87.0420209 47.45881813 92.6171217 47.49838066 C96.14239559 47.52537448 99.66755818 47.56040767 103.19273949 47.59744263 C104.85804499 47.61313199 106.52338781 47.62528324 108.1887455 47.63378906 C110.48181283 47.64586614 112.77445041 47.6699791 115.06738281 47.69702148 C116.36315247 47.70732895 117.65892212 47.71763641 118.99395752 47.72825623 C122 48 122 48 124 50 C80.11 50 36.22 50 -9 50 C-9 9.63636364 -9 9.63636364 -2.25 1.8125 C-1.5075 1.214375 -0.765 0.61625 0 0 Z " fill="#5A7DD6" transform="translate(67,120)"/>
<path d="M0 0 C0.99 0.33 1.98 0.66 3 1 C-1.1241496 9.10608714 -6.38651358 16.18491331 -11.8425293 23.42529297 C-12.93989404 24.91822749 -13.97222229 26.45833343 -15 28 C2.29655191 28.90673753 19.57339233 29.18808155 36.89086914 29.18530273 C39.67381251 29.18522125 42.45659203 29.19222426 45.23950195 29.20581055 C76.88053963 29.36316904 76.88053963 29.36316904 108.125 24.8125 C109.0958252 24.60544434 110.06665039 24.39838867 111.06689453 24.18505859 C119.09127791 22.39072996 126.84919983 19.94171285 134.57861328 17.14770508 C135.39571777 16.85404053 136.21282227 16.56037598 137.0546875 16.2578125 C138.12952393 15.85780029 138.12952393 15.85780029 139.22607422 15.44970703 C141 15 141 15 143 16 C143.33 16.66 143.66 17.32 144 18 C143.41734375 18.15855469 142.8346875 18.31710937 142.234375 18.48046875 C137.3609714 19.8673965 132.8493671 21.49222896 128.25 23.625 C122.57169379 26.07417957 117.55175977 26.52634869 111.41796875 26.7578125 C105.79334404 27.15635734 100.0689239 28.46553805 95 31 C92.91945777 31.07037775 90.85786789 30.997696 88.77734375 30.9375 C86.43591588 30.99019036 84.25280549 31.20172831 81.93531799 31.49681091 C77.02815831 32.05271836 72.19184136 32.13425068 67.25756836 32.11352539 C65.8657132 32.11374443 65.8657132 32.11374443 64.44573975 32.1139679 C61.41041643 32.11327701 58.37515621 32.10552358 55.33984375 32.09765625 C53.22278375 32.09578914 51.10572331 32.09436662 48.98866272 32.09336853 C43.44030547 32.08956644 37.89197476 32.07975605 32.34362793 32.06866455 C26.67244831 32.05840062 21.00126437 32.05386027 15.33007812 32.04882812 C4.22004048 32.03813155 -6.88997755 32.02108309 -18 32 C-18.1667899 27.57938219 -17.62023007 25.98883532 -14.6875 22.625 C-11.5753699 18.86398447 -9.65489132 15.57528778 -8 11 C-7.01 11.33 -6.02 11.66 -5 12 C-5 10.68 -5 9.36 -5 8 C-4.34 8 -3.68 8 -3 8 C-3 6.35 -3 4.7 -3 3 C-2.01 3 -1.02 3 0 3 C0 2.01 0 1.02 0 0 Z " fill="#4345BB" transform="translate(154,321)"/>
<path d="M0 0 C1.34201604 2.68403208 0.70405525 3.7430131 -0.1875 6.5625 C-0.42855469 7.36816406 -0.66960937 8.17382812 -0.91796875 9.00390625 C-2 11 -2 11 -4.11328125 11.77734375 C-5.04720703 11.88755859 -5.04720703 11.88755859 -6 12 C-6 13.98 -6 15.96 -6 18 C-6.99 18.33 -7.98 18.66 -9 19 C-10.28997894 40.5227687 -10.28997894 40.5227687 -9 62 C-8.67 62.33 -8.34 62.66 -8 63 C-7.855625 64.155 -7.71125 65.31 -7.5625 66.5 C-7.376875 67.655 -7.19125 68.81 -7 70 C-6.34 70.33 -5.68 70.66 -5 71 C-4.59270772 73.32156597 -4.25561323 75.6568787 -4 78 C-3.34 78 -2.68 78 -2 78 C-1.81824219 78.55429687 -1.63648438 79.10859375 -1.44921875 79.6796875 C-1.19785156 80.40414062 -0.94648438 81.12859375 -0.6875 81.875 C-0.44386719 82.59429687 -0.20023437 83.31359375 0.05078125 84.0546875 C0.96335547 86.33994905 0.96335547 86.33994905 4 88 C4.15339844 88.62648438 4.30679687 89.25296875 4.46484375 89.8984375 C5.167566 92.65803291 6.48246274 93.71724865 8.5625 95.625 C9.74334995 96.71318768 10.89810336 97.83193202 12 99 C12 99.66 12 100.32 12 101 C12.66 101 13.32 101 14 101 C13.67 101.66 13.34 102.32 13 103 C0.32555555 95.1795981 -7.60701831 81.71644063 -11.41015625 67.5390625 C-16.39782919 46.06894717 -14.49284803 24.94943697 -5 5 C-4.34 5 -3.68 5 -3 5 C-2.87625 4.360625 -2.7525 3.72125 -2.625 3.0625 C-2.41875 2.381875 -2.2125 1.70125 -2 1 C-1.34 0.67 -0.68 0.34 0 0 Z " fill="#69AFDB" transform="translate(281,202)"/>
<path d="M0 0 C3.5384667 2.74627266 4.64386684 6.6699604 6.0625 10.75 C6.32562988 11.5035376 6.58875977 12.2570752 6.85986328 13.03344727 C15.32043179 38.40717613 10.78583282 67.10178354 -1 90.6875 C-3.94283625 96.37947217 -7.20908135 101.83056547 -11 107 C-12 104 -12 104 -10.63671875 100.78515625 C-9.99704347 99.53905285 -9.34685112 98.2983051 -8.6875 97.0625 C-8.36587891 96.44181641 -8.04425781 95.82113281 -7.71289062 95.18164062 C-6.81528553 93.45094003 -5.90794574 91.72529823 -5 90 C-4.63519531 89.21496094 -4.27039063 88.42992187 -3.89453125 87.62109375 C-3 86 -3 86 -1 85 C-0.34444881 82.47266765 -0.34444881 82.47266765 0 80 C0.66 80 1.32 80 2 80 C2 78.02 2 76.04 2 74 C2.66 74 3.32 74 4 74 C4.09087891 72.64455078 4.09087891 72.64455078 4.18359375 71.26171875 C4.26738281 70.08222656 4.35117187 68.90273438 4.4375 67.6875 C4.51871094 66.51574219 4.59992188 65.34398437 4.68359375 64.13671875 C5 61 5 61 6 58 C7.15349738 47.285291 8.45858444 34.37575331 5 24 C4.87218214 21.32605036 4.95608129 18.67904143 5 16 C4.01 15.67 3.02 15.34 2 15 C1.2717552 10.00632136 0.61512818 5.00890086 0 0 Z " fill="#77D4E7" transform="translate(446,207)"/>
<path d="M0 0 C2.19819043 0.01083338 4.39558235 -0.00002295 6.59375 -0.01269531 C8.01562677 -0.01137522 9.43750306 -0.00881595 10.859375 -0.00488281 C12.75405518 -0.00149902 12.75405518 -0.00149902 14.68701172 0.00195312 C18.55593167 0.27871484 21.6311046 1.07030036 25.3046875 2.26074219 C25.3046875 2.59074219 25.3046875 2.92074219 25.3046875 3.26074219 C11.1146875 2.93074219 -3.0753125 2.60074219 -17.6953125 2.26074219 C-17.6953125 2.92074219 -17.6953125 3.58074219 -17.6953125 4.26074219 C-18.58992188 4.34710938 -19.48453125 4.43347656 -20.40625 4.52246094 C-27.54325331 5.3518142 -33.27995047 6.49995015 -39.51171875 10.13964844 C-41.91632088 11.37421161 -44.04097681 11.80976282 -46.6953125 12.26074219 C-48.69936477 12.9151266 -50.69959927 13.58135045 -52.6953125 14.26074219 C-54.02442932 14.61050977 -55.35613989 14.95170236 -56.6953125 15.26074219 C-56.6953125 15.92074219 -56.6953125 16.58074219 -56.6953125 17.26074219 C-58.35379427 18.27425883 -60.02197211 19.27195014 -61.6953125 20.26074219 C-63.06515448 21.55653866 -64.4104174 22.88066967 -65.6953125 24.26074219 C-66.3553125 23.93074219 -67.0153125 23.60074219 -67.6953125 23.26074219 C-67.6953125 23.92074219 -67.6953125 24.58074219 -67.6953125 25.26074219 C-68.3553125 25.59074219 -69.0153125 25.92074219 -69.6953125 26.26074219 C-70.0253125 27.25074219 -70.3553125 28.24074219 -70.6953125 29.26074219 C-71.3553125 29.26074219 -72.0153125 29.26074219 -72.6953125 29.26074219 C-73.0253125 30.25074219 -73.3553125 31.24074219 -73.6953125 32.26074219 C-76.7578125 33.94824219 -76.7578125 33.94824219 -79.6953125 35.26074219 C-79.6953125 34.60074219 -79.6953125 33.94074219 -79.6953125 33.26074219 C-79.0353125 33.26074219 -78.3753125 33.26074219 -77.6953125 33.26074219 C-77.4271875 32.68324219 -77.1590625 32.10574219 -76.8828125 31.51074219 C-75.66602061 29.20524176 -74.39197371 27.24018026 -72.6953125 25.26074219 C-72.0353125 25.26074219 -71.3753125 25.26074219 -70.6953125 25.26074219 C-70.3653125 24.27074219 -70.0353125 23.28074219 -69.6953125 22.26074219 C-67.72383101 20.69411851 -65.78235303 19.28024331 -63.6953125 17.88574219 C-63.15519531 17.51191406 -62.61507813 17.13808594 -62.05859375 16.75292969 C-54.40469326 11.5432818 -46.86081063 7.63154157 -37.9453125 5.07324219 C-36.73875 4.70295898 -36.73875 4.70295898 -35.5078125 4.32519531 C-23.75778178 0.86115324 -12.17221643 -0.07140741 0 0 Z " fill="#72D4E4" transform="translate(359.6953125,167.7392578125)"/>
<path d="M0 0 C1.45947705 0.06006078 2.91779272 0.1488689 4.375 0.25 C5.59316406 0.31960937 5.59316406 0.31960937 6.8359375 0.390625 C9 1 9 1 10.2265625 2.546875 C12.54039357 9.88569274 12.21364908 17.75948183 12.25 25.375 C12.270625 26.4475 12.29125 27.52 12.3125 28.625 C12.3627957 38.96076732 10.52942373 46.94024206 4.125 55.125 C3.2298479 56.31626581 2.33660223 57.50896666 1.4453125 58.703125 C1.0215332 59.26580078 0.59775391 59.82847656 0.16113281 60.40820312 C-1.35681991 62.48916439 -2.68808278 64.65966674 -4 66.875 C-4.66 67.90625 -5.32 68.9375 -6 70 C-6.66 70 -7.32 70 -8 70 C-8 68.68 -8 67.36 -8 66 C-7.01 65.505 -7.01 65.505 -6 65 C-5.34786708 62.97536745 -5.34786708 62.97536745 -5 61 C-4.34 61 -3.68 61 -3 61 C-2.67 60.01 -2.34 59.02 -2 58 C-0.85342054 55.47752519 0.01615727 53.98384273 2 52 C2.165 50.824375 2.33 49.64875 2.5 48.4375 C2.665 47.303125 2.83 46.16875 3 45 C3.99 44.505 3.99 44.505 5 44 C5 44.66 5 45.32 5 46 C5.66 46 6.32 46 7 46 C6.979375 45.05125 6.95875 44.1025 6.9375 43.125 C7 40 7 40 8 38 C8.24587257 33.81768694 8.18521732 29.62621467 8.1875 25.4375 C8.20586914 23.7040332 8.20586914 23.7040332 8.22460938 21.93554688 C8.23586034 15.33123142 7.99763756 9.32474615 6 3 C5.01 2.67 4.02 2.34 3 2 C2.01 1.34 1.02 0.68 0 0 Z " fill="#6B9ADD" transform="translate(258,116)"/>
<path d="M0 0 C7.10571165 0.83377002 11.0789565 1.53217389 16 7 C18.33050487 7.97063311 20.51701774 8.46445481 23 9 C23 8.34 23 7.68 23 7 C23.66 7 24.32 7 25 7 C25 7.66 25 8.32 25 9 C27.97 9.66 30.94 10.32 34 11 C34 11.66 34 12.32 34 13 C40.6 13.33 47.2 13.66 54 14 C54 14.66 54 15.32 54 16 C63.24 16 72.48 16 82 16 C82 16.66 82 17.32 82 18 C32.29215601 18.65511149 32.29215601 18.65511149 10 7 C9.12988281 6.55140625 8.25976562 6.1028125 7.36328125 5.640625 C1.16655514 2.33311028 1.16655514 2.33311028 0 0 Z " fill="#709CD8" transform="translate(295,305)"/>
<path d="M0 0 C0.33 0 0.66 0 1 0 C1.65450951 10.95697404 -0.76822685 20.40841588 -6 30 C-6.33 30.99 -6.66 31.98 -7 33 C-6.071875 32.505 -5.14375 32.01 -4.1875 31.5 C-1 30 -1 30 2 30 C2.061875 29.401875 2.12375 28.80375 2.1875 28.1875 C3 26 3 26 5.25 24.25 C8.12139874 22.94481875 9.89097466 22.73351211 13 23 C13.33 22.01 13.66 21.02 14 20 C15.66072849 19.31867549 17.327767 18.65257873 19 18 C19.66 17.01 20.32 16.02 21 15 C22.32 15 23.64 15 25 15 C24.505 13.515 24.505 13.515 24 12 C24.66 12 25.32 12 26 12 C26 12.66 26 13.32 26 14 C26.66 14.33 27.32 14.66 28 15 C19.72711014 21.54558318 11.28371247 27.01108909 2 32 C1.0203125 32.53109375 0.040625 33.0621875 -0.96875 33.609375 C-7.44522472 37 -7.44522472 37 -12 37 C-10.86189123 33.17181594 -9.37678786 29.69864724 -7.625 26.125 C-4.32496118 19.02698751 -2.72749222 11.59588491 -1 4 C-0.6711328 2.66555808 -0.34053989 1.33151097 0 0 Z " fill="#789BCE" transform="translate(386,322)"/>
<path d="M0 0 C1.12535156 -0.05607422 1.12535156 -0.05607422 2.2734375 -0.11328125 C5.71631017 0.51009603 7.23108952 1.77681817 9.625 4.3125 C10.69140625 7.80859375 10.69140625 7.80859375 11.1875 11.75 C11.37441406 13.04808594 11.56132812 14.34617188 11.75390625 15.68359375 C11.60076622 19.99471751 10.69550636 21.36765493 7.625 24.3125 C3.43306267 26.26223829 -0.76874514 26.68088258 -5.32421875 27.06640625 C-7.57170875 27.26643395 -7.57170875 27.26643395 -10.375 28.3125 C-10.16875 27.219375 -9.9625 26.12625 -9.75 25 C-8.97153475 21.2286599 -8.97153475 21.2286599 -11.375 18.3125 C-11.640625 15.75390625 -11.640625 15.75390625 -11.625 12.875 C-11.63015625 11.92753906 -11.6353125 10.98007813 -11.640625 10.00390625 C-11.25629752 6.10976462 -10.12037699 4.05787699 -7.375 1.3125 C-4.67288939 0.41179646 -2.80431069 0.09092475 0 0 Z M-7.375 5.3125 C-9.41013602 8.40510866 -9.53197031 10.44510191 -9 14.0625 C-8.88914062 14.86171875 -8.77828125 15.6609375 -8.6640625 16.484375 C-8.56867188 17.08765625 -8.47328125 17.6909375 -8.375 18.3125 C-7.715 18.3125 -7.055 18.3125 -6.375 18.3125 C-6.375 18.9725 -6.375 19.6325 -6.375 20.3125 C-3.69707206 22.133491 -2.2345082 22.3099456 1.0625 22.25 C5.41634873 21.10425034 7.03958188 19.99476218 9.625 16.3125 C10.32939501 13.47773961 10.33493393 11.14651045 9.625 8.3125 C7.22661784 4.99708936 5.55440514 3.62889324 1.6875 2.3125 C-2.15023843 2.3125 -4.1842269 3.20949046 -7.375 5.3125 Z " fill="#42A1EC" transform="translate(362.375,235.6875)"/>
<path d="M0 0 C2.60478883 -0.0809313 5.20706653 -0.14045434 7.8125 -0.1875 C8.55048828 -0.21263672 9.28847656 -0.23777344 10.04882812 -0.26367188 C15.51170186 -0.33782853 15.51170186 -0.33782853 17.96484375 1.359375 C21.06092699 6.26637485 20.17960867 12.8047964 19.6171875 18.33984375 C19 21 19 21 16.5625 23.25 C12.01627243 24.20710054 7.62352361 24.61275614 3 24 C-0.65203192 21.56531205 -1.85597057 19.10916692 -3 15 C-3.77913886 9.01621354 -2.89949674 5.34642653 0 0 Z M2 5 C-0.56599956 8.07919947 -1.00845985 9.51778879 -0.9375 13.5625 C0.07563312 17.27732142 1.016553 18.64940539 4 21 C6.85324437 22.42662219 8.83454549 22.31033868 12 22 C14.69990662 20.20006226 16.5418865 18.916227 18 16 C18.50094516 11.74607223 18.74696179 8.19513886 16.4375 4.5 C11.24303555 1.30340649 6.73589061 1.05342449 2 5 Z " fill="#5DC6E3" transform="translate(394,236)"/>
<path d="M0 0 C4.57518179 -0.20756968 7.50139587 0.15409824 11.00390625 3.15625 C13.65814478 7.274896 14.35164985 10.28783965 14.00390625 15.15625 C13.34390625 15.15625 12.68390625 15.15625 12.00390625 15.15625 C11.73578125 16.105 11.46765625 17.05375 11.19140625 18.03125 C10.00390625 21.15625 10.00390625 21.15625 7.00390625 23.15625 C4.2265625 23.45703125 4.2265625 23.45703125 1.06640625 23.46875 C-0.49400391 23.49388672 -0.49400391 23.49388672 -2.0859375 23.51953125 C-5.34585534 23.11258849 -6.68114503 22.44971427 -8.99609375 20.15625 C-10.05994858 16.96468552 -10.16287357 14.57127524 -10.18359375 11.21875 C-10.19777344 10.17847656 -10.21195312 9.13820312 -10.2265625 8.06640625 C-9.9974667 5.17358645 -9.63663456 3.5308633 -7.99609375 1.15625 C-5.30545618 0.38749641 -2.77787842 0.21744645 0 0 Z M-5.99609375 4.15625 C-8.36649683 6.52665308 -8.34075168 7.21927753 -8.43359375 10.46875 C-8.34543247 14.11862692 -8.07782192 15.04086905 -5.87109375 18.15625 C-2.63093221 20.41027542 -0.94518925 21.23684379 3.00390625 21.15625 C5.62614487 19.67196399 7.86863275 18.2915235 10.00390625 16.15625 C10.50648471 11.6330439 10.85204891 7.54720397 8.44140625 3.59375 C3.10288166 0.44538934 -1.08779387 0.36984723 -5.99609375 4.15625 Z " fill="#67A5DA" transform="translate(320.99609375,236.84375)"/>
<path d="M0 0 C-1.40191353 2.99254618 -3.03367489 5.5954611 -5 8.25 C-5.515625 8.95640625 -6.03125 9.6628125 -6.5625 10.390625 C-7.036875 10.92171875 -7.51125 11.4528125 -8 12 C-8.66 12 -9.32 12 -10 12 C-10.268125 12.556875 -10.53625 13.11375 -10.8125 13.6875 C-12.10122647 16.19712523 -13.52926478 18.59334236 -15 21 C-15.33 20.01 -15.66 19.02 -16 18 C-19.97081631 21.77499523 -23.24939831 25.22263918 -26 30 C-26.66 30 -27.32 30 -28 30 C-26.89315584 26.16861638 -26.02722356 23.63236831 -23 21 C-22.67 20.34 -22.34 19.68 -22 19 C-21.34 19 -20.68 19 -20 19 C-19.67 17.68 -19.34 16.36 -19 15 C-18.34 15 -17.68 15 -17 15 C-16.566875 13.5459375 -16.566875 13.5459375 -16.125 12.0625 C-15 9 -15 9 -13 8 C-12.34444881 5.47266765 -12.34444881 5.47266765 -12 3 C-7.25 1.875 -7.25 1.875 -5 3 C-5 2.34 -5 1.68 -5 1 C-3 0 -3 0 0 0 Z " fill="#5164F2" transform="translate(144,254)"/>
<path d="M0 0 C0.495 0.99 0.495 0.99 1 2 C0.41734375 2.15855469 -0.1653125 2.31710937 -0.765625 2.48046875 C-5.6390286 3.8673965 -10.1506329 5.49222896 -14.75 7.625 C-20.42830621 10.07417957 -25.44824023 10.52634869 -31.58203125 10.7578125 C-37.20665596 11.15635734 -42.9310761 12.46553805 -48 15 C-49.6696807 15.01614884 -51.34028286 14.96515778 -53.0078125 14.87890625 C-53.99394531 14.83056641 -54.98007813 14.78222656 -55.99609375 14.73242188 C-57.54490234 14.64831055 -57.54490234 14.64831055 -59.125 14.5625 C-60.16527344 14.51029297 -61.20554688 14.45808594 -62.27734375 14.40429688 C-64.85185116 14.27439054 -67.42599296 14.13941748 -70 14 C-70 13.67 -70 13.34 -70 13 C-69.42894531 12.96559814 -68.85789063 12.93119629 -68.26953125 12.89575195 C-47.60288296 11.57123008 -27.93945599 8.20304473 -8.42138672 1.14770508 C-7.60428223 0.85404053 -6.78717773 0.56037598 -5.9453125 0.2578125 C-5.22875488 -0.0088623 -4.51219727 -0.27553711 -3.77392578 -0.55029297 C-2 -1 -2 -1 0 0 Z " fill="#6067C9" transform="translate(297,337)"/>
<path d="M0 0 C0.66 0.99 1.32 1.98 2 3 C1.34 4.32 0.68 5.64 0 7 C-0.99 7 -1.98 7 -3 7 C-3.33 7.99 -3.66 8.98 -4 10 C-4.66 10 -5.32 10 -6 10 C-6.14308594 11.05960938 -6.14308594 11.05960938 -6.2890625 12.140625 C-7.12450151 15.50074232 -8.5101723 17.83866562 -10.375 20.75 C-10.98085937 21.71421875 -11.58671875 22.6784375 -12.2109375 23.671875 C-14 26 -14 26 -17 27 C-17.90278912 29.02364324 -18.45383213 31.05752196 -19.05859375 33.1875 C-20 35 -20 35 -22.09765625 35.75 C-22.72542969 35.8325 -23.35320312 35.915 -24 36 C-24.495 38.475 -24.495 38.475 -25 41 C-26.32 40.67 -27.64 40.34 -29 40 C-21.98649417 29.68973669 -14.93495795 19.41198454 -7.69628906 9.25805664 C-5.15704039 5.74734061 -5.15704039 5.74734061 -3 2 C-2.01 2 -1.02 2 0 2 C0 1.34 0 0.68 0 0 Z " fill="#7498DB" transform="translate(173,197)"/>
<path d="M0 0 C1.06751688 3.30421892 0.98942604 4.03172187 -0.1875 7.5625 C-2 11 -2 11 -4.0625 12.375 C-7.29880507 15.08932038 -7.47084482 18.99167464 -8 23 C-8.23033886 28.19101649 -8.19004814 33.3690809 -8.125 38.5625 C-8.11494735 39.96679047 -8.10582555 41.37108793 -8.09765625 42.77539062 C-8.07423093 46.18377485 -8.04142746 49.591795 -8 53 C-12.68299101 48.31700899 -12.17673229 39.93281453 -12.3125 33.6875 C-12.03162923 19.71417917 -8.42015936 10.785571 0 0 Z " fill="#7876CE" transform="translate(69,345)"/>
<path d="M0 0 C0.33 0.99 0.66 1.98 1 3 C0.02248365 4.34990354 -0.98199424 5.68036291 -2 7 C-2.72351427 8.98014432 -3.40265389 10.97821315 -4 13 C-4.66 13 -5.32 13 -6 13 C-6.144375 13.61875 -6.28875 14.2375 -6.4375 14.875 C-7 17 -7 17 -8 19 C-8.66 19 -9.32 19 -10 19 C-10.33 20.32 -10.66 21.64 -11 23 C-11.66 23 -12.32 23 -13 23 C-13.433125 24.2065625 -13.433125 24.2065625 -13.875 25.4375 C-15 28 -15 28 -17 29 C-17.268125 30.27875 -17.53625 31.5575 -17.8125 32.875 C-18.55200159 36.17021907 -18.76800457 36.80860377 -21.5 39.0625 C-22.325 39.371875 -23.15 39.68125 -24 40 C-24.66 39.67 -25.32 39.34 -26 39 C-26.33 39.99 -26.66 40.98 -27 42 C-27.66 41.67 -28.32 41.34 -29 41 C-28.66379639 40.53851563 -28.32759277 40.07703125 -27.98120117 39.6015625 C-20.99947699 30.0065805 -14.11818766 20.35796314 -7.4375 10.55078125 C-5.01127506 6.99514072 -2.51252997 3.49510865 0 0 Z " fill="#6A74D5" transform="translate(135,250)"/>
<path d="M0 0 C0.33 0 0.66 0 1 0 C3.02089239 20.50831541 -7.12060671 41.80082734 -19 58 C-20 55 -20 55 -18.63671875 51.78515625 C-17.99704347 50.53905285 -17.34685112 49.2983051 -16.6875 48.0625 C-16.36587891 47.44181641 -16.04425781 46.82113281 -15.71289062 46.18164062 C-14.81528553 44.45094003 -13.90794574 42.72529823 -13 41 C-12.63519531 40.21496094 -12.27039063 39.42992187 -11.89453125 38.62109375 C-11 37 -11 37 -9 36 C-8.34444881 33.47266765 -8.34444881 33.47266765 -8 31 C-7.34 31 -6.68 31 -6 31 C-6 29.02 -6 27.04 -6 25 C-5.34 25 -4.68 25 -4 25 C-3.96261719 24.20078125 -3.92523438 23.4015625 -3.88671875 22.578125 C-3.41793851 14.74673753 -2.15966453 7.53845168 0 0 Z " fill="#6DB8D9" transform="translate(454,256)"/>
<path d="M0 0 C0.99 0.33 1.98 0.66 3 1 C-1.1241496 9.10608714 -6.38651358 16.18491331 -11.8425293 23.42529297 C-12.93989404 24.91822749 -13.97222229 26.45833343 -15 28 C-14.29391602 28.01981934 -13.58783203 28.03963867 -12.86035156 28.06005859 C-9.65653006 28.15540415 -6.45335199 28.26504513 -3.25 28.375 C-1.58324219 28.42140625 -1.58324219 28.42140625 0.1171875 28.46875 C1.72207031 28.52675781 1.72207031 28.52675781 3.359375 28.5859375 C4.34389648 28.6173584 5.32841797 28.6487793 6.34277344 28.68115234 C9 29 9 29 13 31 C2.77 31 -7.46 31 -18 31 C-17.00203939 26.01019696 -16.05917756 24.33372272 -13.0625 20.4375 C-10.72277041 17.37589377 -8.58302473 14.52243723 -7 11 C-6.34 11.33 -5.68 11.66 -5 12 C-5 10.68 -5 9.36 -5 8 C-4.34 8 -3.68 8 -3 8 C-3 6.35 -3 4.7 -3 3 C-2.01 3 -1.02 3 0 3 C0 2.01 0 1.02 0 0 Z " fill="#6768C5" transform="translate(154,321)"/>
<path d="M0 0 C0.99 0.495 0.99 0.495 2 1 C2.33333333 3.33333333 2.66666667 5.66666667 3 8 C3.66 8.33 4.32 8.66 5 9 C5.40729228 11.32156597 5.74438677 13.6568787 6 16 C6.66 16 7.32 16 8 16 C8.18175781 16.55429687 8.36351562 17.10859375 8.55078125 17.6796875 C8.92783203 18.76636719 8.92783203 18.76636719 9.3125 19.875 C9.55613281 20.59429687 9.79976563 21.31359375 10.05078125 22.0546875 C10.96335547 24.33994905 10.96335547 24.33994905 14 26 C14.23009766 26.93972656 14.23009766 26.93972656 14.46484375 27.8984375 C15.167566 30.65803291 16.48246274 31.71724865 18.5625 33.625 C19.74334995 34.71318768 20.89810336 35.83193202 22 37 C22 37.66 22 38.32 22 39 C22.66 39 23.32 39 24 39 C23.67 39.66 23.34 40.32 23 41 C11.6625718 34.00456558 4.17077749 22.51233248 0 10 C-0.06802967 8.27204648 -0.08495645 6.54164635 -0.0625 4.8125 C-0.05347656 3.91144531 -0.04445313 3.01039063 -0.03515625 2.08203125 C-0.02355469 1.39496094 -0.01195312 0.70789063 0 0 Z " fill="#4C89DE" transform="translate(271,264)"/>
<path d="M0 0 C0.33 0.66 0.66 1.32 1 2 C0.67 2.99 0.34 3.98 0 5 C-0.66 5 -1.32 5 -2 5 C-4.05137315 8.48216283 -4.56818592 11.77275657 -5.125 15.75 C-5.29257812 16.92046875 -5.46015625 18.0909375 -5.6328125 19.296875 C-5.75398438 20.18890625 -5.87515625 21.0809375 -6 22 C-5.34 22 -4.68 22 -4 22 C-4.48895752 23.07350708 -4.48895752 23.07350708 -4.98779297 24.16870117 C-6.03910572 27.1093847 -6.23162172 29.19634281 -6.1953125 32.30078125 C-6.18886719 33.27724609 -6.18242188 34.25371094 -6.17578125 35.25976562 C-6.15902344 36.26716797 -6.14226563 37.27457031 -6.125 38.3125 C-6.11146484 39.85260742 -6.11146484 39.85260742 -6.09765625 41.42382812 C-6.07416201 43.94945899 -6.04131131 46.4746081 -6 49 C-7.485 49.495 -7.485 49.495 -9 50 C-9.09997246 45.35935528 -9.17197966 40.71935728 -9.21972656 36.07788086 C-9.23966084 34.50387635 -9.26681871 32.92994411 -9.30175781 31.35620117 C-9.73932898 11.11853456 -9.73932898 11.11853456 -3.63085938 3.23242188 C-2.25 1.8125 -2.25 1.8125 0 0 Z " fill="#708AD2" transform="translate(67,120)"/>
<path d="M0 0 C4.43459297 -0.08294127 8.51368697 0.16152612 12.875 0.9375 C23.82913641 2.61634047 34.9387917 2.67949856 46 3 C45.91253716 4.43861294 45.80434652 5.87597508 45.6875 7.3125 C45.60048828 8.51326172 45.60048828 8.51326172 45.51171875 9.73828125 C45 12 45 12 42 15 C42.33 11.7 42.66 8.4 43 5 C41.92516357 5.01571045 40.85032715 5.0314209 39.74291992 5.04760742 C35.75666797 5.10189111 31.77044872 5.13634421 27.78393555 5.16479492 C26.05829373 5.17988516 24.33269028 5.20035975 22.60717773 5.22631836 C20.12734512 5.26269209 17.64801936 5.27972359 15.16796875 5.29296875 C14.01001045 5.31619453 14.01001045 5.31619453 12.82865906 5.33988953 C7.44322076 5.34158317 7.44322076 5.34158317 5.1262207 3.5559082 C4.75456787 3.0424585 4.38291504 2.52900879 4 2 C1.90010348 0.82425289 1.90010348 0.82425289 0 0 Z " fill="#2821B4" transform="translate(327,330)"/>
<path d="M0 0 C12.21 0 24.42 0 37 0 C34 4 34 4 30.9375 4.8125 C28 5 28 5 26 4 C26 3.01 26 2.02 26 1 C20.39 1 14.78 1 9 1 C9 1.66 9 2.32 9 3 C7.4221875 2.938125 7.4221875 2.938125 5.8125 2.875 C2.16028972 2.76442087 2.16028972 2.76442087 -0.34375 4 C-3.49442062 5.18613482 -5.95790126 5.19872744 -9.3125 5.125 C-10.38113281 5.10695312 -11.44976562 5.08890625 -12.55078125 5.0703125 C-13.35902344 5.04710937 -14.16726563 5.02390625 -15 5 C-14 3 -14 3 -12.265625 2.37890625 C-9.71855716 1.95293111 -7.33143831 1.90353371 -4.75 1.9375 C-3.85796875 1.94652344 -2.9659375 1.95554688 -2.046875 1.96484375 C-1.37140625 1.97644531 -0.6959375 1.98804688 0 2 C0 1.34 0 0.68 0 0 Z " fill="#46D9F3" transform="translate(342,170)"/>
<path d="M0 0 C0.74572266 -0.020625 1.49144531 -0.04125 2.25976562 -0.0625 C5.56870794 -0.08611422 7.90579222 0.02552253 10.83203125 1.640625 C12.3125 3.25 12.3125 3.25 12.3125 5.25 C12.6425 6.24 12.9725 7.23 13.3125 8.25 C12.6525 8.25 11.9925 8.25 11.3125 8.25 C11.498125 9.178125 11.68375 10.10625 11.875 11.0625 C12.3125 14.25 12.3125 14.25 11.3125 17.25 C8.3125 19.25 8.3125 19.25 6.3125 20.25 C6.4775 19.30125 6.6425 18.3525 6.8125 17.375 C7.37941504 12.69795094 7.3125 7.96128226 7.3125 3.25 C-4.0725 2.755 -4.0725 2.755 -15.6875 2.25 C-15.6875 1.92 -15.6875 1.59 -15.6875 1.25 C-10.42894753 0.38862549 -5.32591516 0.03740766 0 0 Z " fill="#4A8EDF" transform="translate(378.6875,318.75)"/>
<path d="M0 0 C-1.38900747 3.94024569 -3.23875492 6.92114024 -5.75 10.25 C-8.95180984 14.54824016 -11.97358308 18.90985269 -14.87109375 23.41796875 C-15.24363281 23.94003906 -15.61617187 24.46210938 -16 25 C-16.33 25 -16.66 25 -17 25 C-17 22.36 -17 19.72 -17 17 C-16.34 16.67 -15.68 16.34 -15 16 C-14.26924352 13.6859378 -13.59861742 11.35171131 -13 9 C-11.35 8.67 -9.7 8.34 -8 8 C-7.938125 7.4225 -7.87625 6.845 -7.8125 6.25 C-6.57516782 2.82354165 -3.78322279 0 0 0 Z " fill="#4454DB" transform="translate(199,261)"/>
<path d="M0 0 C-19.97095867 3.16371622 -39.88203137 2.03863191 -60 1 C-60 0.67 -60 0.34 -60 0 C-48.75955639 -0.96395841 -37.59758035 -1.08059267 -26.3190918 -0.96289062 C-25.20058838 -0.95451172 -24.08208496 -0.94613281 -22.9296875 -0.9375 C-21.43284424 -0.92009766 -21.43284424 -0.92009766 -19.90576172 -0.90234375 C-2.68141119 -1.48121623 -2.68141119 -1.48121623 0 0 Z " fill="#5250C6" transform="translate(236,403)"/>
<path d="M0 0 C0.99 0.33 1.98 0.66 3 1 C2.29875 2.01578125 1.5975 3.0315625 0.875 4.078125 C-4.82091944 12.33967416 -10.46651438 20.6284229 -16 29 C-16.66 28.67 -17.32 28.34 -18 28 C-17.01 24.535 -17.01 24.535 -16 21 C-15.34 21 -14.68 21 -14 21 C-13.9175 20.38125 -13.835 19.7625 -13.75 19.125 C-13.5025 18.42375 -13.255 17.7225 -13 17 C-12.01 16.5359375 -12.01 16.5359375 -11 16.0625 C-10.34 15.711875 -9.68 15.36125 -9 15 C-8.23043864 12.65466049 -8.23043864 12.65466049 -8 10 C-7.66666667 8.33333333 -7.33333333 6.66666667 -7 5 C-5.824375 4.87625 -5.824375 4.87625 -4.625 4.75 C-1.85250896 4.27193661 -1.85250896 4.27193661 -0.6875 1.9375 C-0.460625 1.298125 -0.23375 0.65875 0 0 Z " fill="#6C78CF" transform="translate(217,231)"/>
<path d="M0 0 C0.66 0 1.32 0 2 0 C2 0.66 2 1.32 2 2 C2.66 2.33 3.32 2.66 4 3 C-11.72712561 15.29727375 -11.72712561 15.29727375 -20 19 C-20.99 18.67 -21.98 18.34 -23 18 C-21.54600704 14.16674584 -19.6919885 12.71720395 -16 11 C-13.1875 10.8125 -13.1875 10.8125 -11 11 C-10.67 10.01 -10.34 9.02 -10 8 C-8.33927151 7.31867549 -6.672233 6.65257873 -5 6 C-4.34 5.01 -3.68 4.02 -3 3 C-1.68 3 -0.36 3 1 3 C0.67 2.01 0.34 1.02 0 0 Z " fill="#669AD5" transform="translate(410,334)"/>
<path d="M0 0 C3.0625 2 3.0625 2 5 4 C4.67 5.32 4.34 6.64 4 8 C3.46375 7.360625 2.9275 6.72125 2.375 6.0625 C-0.52411526 3.54484728 -2.19075182 3.15547952 -6 3 C-8.96154968 3.74038742 -10.47861753 4.17837315 -12.1328125 6.78515625 C-13.10933876 9.27925712 -13.20341954 11.0837358 -13.125 13.75 C-13.10695313 14.54921875 -13.08890625 15.3484375 -13.0703125 16.171875 C-13.04710937 16.77515625 -13.02390625 17.3784375 -13 18 C-12.34 18 -11.68 18 -11 18 C-11 18.66 -11 19.32 -11 20 C-10.34 20.33 -9.68 20.66 -9 21 C-9.99 21.33 -10.98 21.66 -12 22 C-14 20.6875 -14 20.6875 -16 18 C-16.69091086 12.70569466 -16.87417325 7.6475993 -14 3 C-10.19246381 -0.80753619 -5.09693964 -0.68732811 0 0 Z " fill="#63ADD6" transform="translate(367,236)"/>
<path d="M0 0 C1.07817935 3.22730196 0.94858069 4.98126331 -0.3125 8.125 C-0.70888672 9.14980469 -0.70888672 9.14980469 -1.11328125 10.1953125 C-2 12 -2 12 -4 14 C-4.99 14 -5.98 14 -7 14 C-7.185625 15.0725 -7.37125 16.145 -7.5625 17.25 C-8.23076135 19.69039144 -8.6966266 20.7568809 -10.69140625 22.35546875 C-12.41659751 23.32087881 -14.20599015 24.16943988 -16 25 C-14.34364039 19.80317174 -11.15988791 15.74220358 -8 11.375 C-6.91645732 9.86212908 -5.83311584 8.34911404 -4.75 6.8359375 C-4.27046875 6.17126465 -3.7909375 5.5065918 -3.296875 4.82177734 C-2.16771206 3.23559251 -1.08002725 1.62004087 0 0 Z " fill="#7375DB" transform="translate(86,320)"/>
<path d="M0 0 C2.01136276 2.55991624 3.62845496 5.04590299 5 8 C5.99 8 6.98 8 8 8 C8.99 8 9.98 8 11 8 C10.79375 8.598125 10.5875 9.19625 10.375 9.8125 C9.69328085 12.28450846 9.69328085 12.28450846 12 15 C14.64047252 16.01752555 14.64047252 16.01752555 17.625 16.6875 C18.62789063 16.93886719 19.63078125 17.19023437 20.6640625 17.44921875 C21.43492187 17.63097656 22.20578125 17.81273437 23 18 C23.33 19.32 23.66 20.64 24 22 C25.134375 22.28875 26.26875 22.5775 27.4375 22.875 C28.613125 23.24625 29.78875 23.6175 31 24 C31.495 24.99 31.495 24.99 32 26 C26.97483651 25.521413 24.04655014 23.96747011 20 21 C16.71536341 18.81024227 13.79303725 18.00193437 10 17 C10 16.34 10 15.68 10 15 C9.34 15 8.68 15 8 15 C6.34375 13.35546875 6.34375 13.35546875 4.5 11.1875 C3.8915625 10.47980469 3.283125 9.77210938 2.65625 9.04296875 C1 7 1 7 -1 4 C-0.625 1.8125 -0.625 1.8125 0 0 Z " fill="#4385ED" transform="translate(285,288)"/>
<path d="M0 0 C0.33 0.99 0.66 1.98 1 3 C0.01 4.485 0.01 4.485 -1 6 C-1.66 6 -2.32 6 -3 6 C-3.25265625 6.5671875 -3.5053125 7.134375 -3.765625 7.71875 C-7.22745258 14.11655793 -12.73427163 19.39720619 -19 23 C-18.67 21.68 -18.34 20.36 -18 19 C-17.34 19 -16.68 19 -16 19 C-15.95875 18.4225 -15.9175 17.845 -15.875 17.25 C-15 15 -15 15 -12.1875 13.25 C-8.60040384 10.71793212 -7.61090427 8.83690011 -5.95703125 4.90234375 C-4.55742461 2.12026852 -3.26599656 0 0 0 Z " fill="#6BABDA" transform="translate(433,313)"/>
<path d="M0 0 C0.66 0.66 1.32 1.32 2 2 C0.43898481 4.35516272 -1.12376949 6.70914104 -2.6875 9.0625 C-3.12255859 9.71927734 -3.55761719 10.37605469 -4.00585938 11.05273438 C-6.91899135 15.43322171 -9.92128268 19.73417366 -13 24 C-13.93423645 20.98968256 -14.04449911 20.13349732 -13 17 C-12.34 17 -11.68 17 -11 17 C-10.67 15.35 -10.34 13.7 -10 12 C-9.01 12 -8.02 12 -7 12 C-6.814375 11.0409375 -6.814375 11.0409375 -6.625 10.0625 C-6.41875 9.381875 -6.2125 8.70125 -6 8 C-5.34 7.67 -4.68 7.34 -4 7 C-3.67 6.01 -3.34 5.02 -3 4 C-2.67 3.01 -2.34 2.02 -2 1 C-1.34 0.67 -0.68 0.34 0 0 Z " fill="#687FCB" transform="translate(234,206)"/>
<path d="M0 0 C0.66 0 1.32 0 2 0 C0.41145659 4.51526198 -1.92294266 8.31517942 -4.5 12.3125 C-4.90347656 12.95767578 -5.30695313 13.60285156 -5.72265625 14.26757812 C-6.75845742 15.88281262 -7.87340548 17.44672883 -9 19 C-9.66 19 -10.32 19 -11 19 C-11.33 19.66 -11.66 20.32 -12 21 C-12 20.01 -12 19.02 -12 18 C-11.34 18 -10.68 18 -10 18 C-9.87625 16.948125 -9.7525 15.89625 -9.625 14.8125 C-8.83056075 9.96642058 -7.94083041 6.15266433 -4 3 C-3.01 2.67 -2.02 2.34 -1 2 C-0.67 1.34 -0.34 0.68 0 0 Z " fill="#5F78D5" transform="translate(248,186)"/>
<path d="M0 0 C0 0.66 0 1.32 0 2 C-1.65848177 3.01351664 -3.32665961 4.01120795 -5 5 C-6.36984198 6.29579647 -7.7151049 7.61992749 -9 9 C-9.66 8.67 -10.32 8.34 -11 8 C-11 8.66 -11 9.32 -11 10 C-11.99 10.495 -11.99 10.495 -13 11 C-13.33 11.99 -13.66 12.98 -14 14 C-14.66 14 -15.32 14 -16 14 C-16.33 14.99 -16.66 15.98 -17 17 C-20.0625 18.6875 -20.0625 18.6875 -23 20 C-23 19.34 -23 18.68 -23 18 C-22.34 18 -21.68 18 -21 18 C-20.731875 17.4225 -20.46375 16.845 -20.1875 16.25 C-18.97070811 13.94449957 -17.69666121 11.97943808 -16 10 C-15.34 10 -14.68 10 -14 10 C-13.67 9.01 -13.34 8.02 -13 7 C-10.8203125 5.17578125 -10.8203125 5.17578125 -8.125 3.3125 C-7.24070312 2.68988281 -6.35640625 2.06726563 -5.4453125 1.42578125 C-3 0 -3 0 0 0 Z " fill="#77C2DE" transform="translate(303,183)"/>
<path d="M0 0 C0.33 0 0.66 0 1 0 C1 6.27 1 12.54 1 19 C1.66 19 2.32 19 3 19 C3 23.95 3 28.9 3 34 C2.67 34 2.34 34 2 34 C-0.29793055 22.9480483 -1.76574658 12.30948795 -1 1 C-0.67 0.67 -0.34 0.34 0 0 Z " fill="#75A6D8" transform="translate(268,238)"/>
<path d="M0 0 C0.61328125 1.828125 0.61328125 1.828125 1 4 C-0.8125 6.75 -0.8125 6.75 -3 9 C-3.66 9 -4.32 9 -5 9 C-4.773125 9.598125 -4.54625 10.19625 -4.3125 10.8125 C-4.1578125 11.8953125 -4.1578125 11.8953125 -4 13 C-5.4375 14.5625 -5.4375 14.5625 -7 16 C-7 16.99 -7 17.98 -7 19 C-8.98 19.33 -10.96 19.66 -13 20 C-10.74085142 15.12143993 -7.97065844 10.94099969 -4.8125 6.625 C-4.34908203 5.98433594 -3.88566406 5.34367187 -3.40820312 4.68359375 C-2.276034 3.1195663 -1.13856126 1.55938034 0 0 Z " fill="#6F73D8" transform="translate(100,300)"/>
<path d="M0 0 C3.3 0 6.6 0 10 0 C10 0.33 10 0.66 10 1 C5.545 1.495 5.545 1.495 1 2 C0.34 3.65 -0.32 5.3 -1 7 C-1.99 7 -2.98 7 -4 7 C-8.31259775 9.73481808 -9.76921451 12.07685806 -11 17 C-11.33 17 -11.66 17 -12 17 C-12.2295711 13.63295715 -12.33943529 11.58629732 -10.625 8.625 C-10.08875 8.08875 -9.5525 7.5525 -9 7 C-8.34 7 -7.68 7 -7 7 C-6.67 5.35 -6.34 3.7 -6 2 C-4.02 2 -2.04 2 0 2 C0 1.34 0 0.68 0 0 Z " fill="#5983EA" transform="translate(74,118)"/>
<path d="M0 0 C-3.12785083 1.71216479 -6.17698671 2.67493863 -9.625 3.5625 C-13.4121225 4.51673316 -13.4121225 4.51673316 -17 6 C-18.6696807 6.01614884 -20.34028286 5.96515778 -22.0078125 5.87890625 C-22.99394531 5.83056641 -23.98007813 5.78222656 -24.99609375 5.73242188 C-26.54490234 5.64831055 -26.54490234 5.64831055 -28.125 5.5625 C-29.16527344 5.51029297 -30.20554688 5.45808594 -31.27734375 5.40429688 C-33.85185116 5.27439054 -36.42599296 5.13941748 -39 5 C-39 4.67 -39 4.34 -39 4 C-38.04130005 3.92483154 -38.04130005 3.92483154 -37.06323242 3.84814453 C-34.10416782 3.61282806 -31.14586477 3.36895131 -28.1875 3.125 C-27.18267578 3.04636719 -26.17785156 2.96773438 -25.14257812 2.88671875 C-19.15966858 2.38653982 -13.34829722 1.60806568 -7.46606445 0.39794922 C-4.93459574 -0.0105543 -2.5595717 -0.06808741 0 0 Z " fill="#7374CE" transform="translate(266,346)"/>
<path d="M0 0 C0.33 0 0.66 0 1 0 C1.13277344 0.61488281 1.26554687 1.22976562 1.40234375 1.86328125 C1.57894531 2.67152344 1.75554687 3.47976562 1.9375 4.3125 C2.19853516 5.51326172 2.19853516 5.51326172 2.46484375 6.73828125 C2.99886159 9.145401 2.99886159 9.145401 4 12 C8.62 12.66 13.24 13.32 18 14 C14.76085771 16.15942819 13.75140267 16.27232978 10 16.25 C9.13375 16.25515625 8.2675 16.2603125 7.375 16.265625 C5 16 5 16 2 14 C-0.8379176 8.8309358 -1.32765047 5.91407936 0 0 Z " fill="#61BADB" transform="translate(392,244)"/>
<path d="M0 0 C0.99 0 1.98 0 3 0 C0.49179193 5.28958732 -2.83276178 10.08971793 -6 15 C-6.42152344 15.67675781 -6.84304687 16.35351562 -7.27734375 17.05078125 C-8.13201023 18.40212184 -9.05748039 19.70839906 -10 21 C-10.66 21 -11.32 21 -12 21 C-12 19.68 -12 18.36 -12 17 C-11.34 16.67 -10.68 16.34 -10 16 C-9.34786708 13.97536745 -9.34786708 13.97536745 -9 12 C-8.34 12 -7.68 12 -7 12 C-6.67 11.01 -6.34 10.02 -6 9 C-4.94242135 6.31537726 -4.39847957 5.23439975 -1.875 3.75 C-1.25625 3.5025 -0.6375 3.255 0 3 C0 2.01 0 1.02 0 0 Z " fill="#87A7D9" transform="translate(262,165)"/>
<path d="M0 0 C0.99 0.33 1.98 0.66 3 1 C2.125 4.875 2.125 4.875 1 6 C1.99 6.99 2.98 7.98 4 9 C2.54618103 9.69699552 1.08677047 10.38233866 -0.375 11.0625 C-1.18710937 11.44535156 -1.99921875 11.82820313 -2.8359375 12.22265625 C-3.55007813 12.47917969 -4.26421875 12.73570312 -5 13 C-5.66 12.67 -6.32 12.34 -7 12 C-6.38125 11.113125 -5.7625 10.22625 -5.125 9.3125 C-3.3417532 6.53273294 -2.14011568 4.0695422 -1 1 C-0.67 0.67 -0.34 0.34 0 0 Z " fill="#458AEB" transform="translate(384,343)"/>
<path d="M0 0 C2 3 2 3 2 6 C1.34 6 0.68 6 0 6 C0.5259375 7.423125 0.5259375 7.423125 1.0625 8.875 C2.27489237 12.98877274 1.71638349 16.49341872 1.16015625 20.6875 C0.96146761 23.55637005 1.58848657 25.50909394 3 28 C2.01 28.66 1.02 29.32 0 30 C-1.69625307 28.30374693 -1.1301121 26.14661482 -1.1328125 23.828125 C-1.13410156 22.77109375 -1.13539062 21.7140625 -1.13671875 20.625 C-1.13285156 19.51125 -1.12898438 18.3975 -1.125 17.25 C-1.12886719 16.15171875 -1.13273437 15.0534375 -1.13671875 13.921875 C-1.13542969 12.8596875 -1.13414063 11.7975 -1.1328125 10.703125 C-1.13112061 9.24374512 -1.13112061 9.24374512 -1.12939453 7.75488281 C-1.00333815 5.07107116 -0.59983478 2.61496991 0 0 Z " fill="#4848E8" transform="translate(61,363)"/>
<path d="M0 0 C0.66 0 1.32 0 2 0 C2.33 0.99 2.66 1.98 3 3 C0.42441474 4.2278953 -2.15820544 5.43223642 -4.75 6.625 C-5.47960937 6.975625 -6.20921875 7.32625 -6.9609375 7.6875 C-12.43696596 10.17660385 -12.43696596 10.17660385 -15.515625 9.2109375 C-16.00546875 8.81132812 -16.4953125 8.41171875 -17 8 C-16 6 -16 6 -14.125 5.375 C-12 5 -12 5 -9 5 C-7.66018514 4.6937566 -6.32488113 4.36548445 -5 4 C-5 3.34 -5 2.68 -5 2 C-3.35 2 -1.7 2 0 2 C0 1.34 0 0.68 0 0 Z " fill="#5C5DCA" transform="translate(314,375)"/>
<path d="M0 0 C1.35688365 3.08382647 0.90841398 4.27475805 -0.1875 7.5625 C-2 11 -2 11 -4.0625 12.375 C-7.26654835 15.06226636 -7.36380006 19.0070083 -8 23 C-8.33 23 -8.66 23 -9 23 C-9.12318279 13.90207079 -6.42751586 8.21008234 -1 1 C-0.67 0.67 -0.34 0.34 0 0 Z " fill="#6363D8" transform="translate(69,345)"/>
<path d="M0 0 C7.05229525 0.82750224 11.16943835 1.47935812 16 7 C19.16701423 8.33563611 19.16701423 8.33563611 22 9 C21.67 9.66 21.34 10.32 21 11 C13.59194258 9.20315203 7.19999088 6.49655905 1 2 C0.67 1.34 0.34 0.68 0 0 Z " fill="#6E96D4" transform="translate(295,305)"/>
<path d="M0 0 C0.99 0 1.98 0 3 0 C1.9214967 2.82070093 0.7733663 5.4112982 -0.6875 8.0625 C-2.23282182 10.83286605 -2.23282182 10.83286605 -1.6875 13.375 C-1.460625 13.91125 -1.23375 14.4475 -1 15 C-1.7425 15.12375 -2.485 15.2475 -3.25 15.375 C-5.80141485 15.95486701 -7.7267573 16.73708739 -10 18 C-10 17.34 -10 16.68 -10 16 C-9.21625 15.278125 -8.4325 14.55625 -7.625 13.8125 C-4.60661168 10.57851251 -4.0760838 8.22747209 -3 4 C-1.5625 1.5625 -1.5625 1.5625 0 0 Z " fill="#5056E2" transform="translate(105,293)"/>
<path d="M0 0 C-3.92366876 2.61577917 -7.96692652 3.7685353 -12.4375 5.1875 C-13.29666016 5.47302734 -14.15582031 5.75855469 -15.04101562 6.05273438 C-15.87181641 6.31763672 -16.70261719 6.58253906 -17.55859375 6.85546875 C-18.31454834 7.09934326 -19.07050293 7.34321777 -19.84936523 7.59448242 C-22.23894365 8.04505454 -23.71272985 7.75896519 -26 7 C-25.01 7 -24.02 7 -23 7 C-23 6.34 -23 5.68 -23 5 C-15.47955276 1.9918211 -8.19880578 -0.42045158 0 0 Z " fill="#6666C7" transform="translate(288,389)"/>
<path d="M0 0 C0.99 0.33 1.98 0.66 3 1 C3 1.66 3 2.32 3 3 C3.33 3.99 3.66 4.98 4 6 C3.34 6 2.68 6 2 6 C2.185625 6.928125 2.37125 7.85625 2.5625 8.8125 C3 12 3 12 2 15 C-1 17 -1 17 -3 18 C-2.57628782 14.46906515 -2.08465353 11.24898096 -0.9375 7.875 C-0.01596927 5.04897244 0.17325184 2.94528126 0 0 Z " fill="#4092F2" transform="translate(388,321)"/>
<path d="M0 0 C0.66 0.33 1.32 0.66 2 1 C2 9.91 2 18.82 2 28 C1.34 28 0.68 28 0 28 C-0.19581346 23.52115561 -0.3802636 19.04191574 -0.5625 14.5625 C-0.61857422 13.28310547 -0.67464844 12.00371094 -0.73242188 10.68554688 C-0.78076172 9.47060547 -0.82910156 8.25566406 -0.87890625 7.00390625 C-0.9260376 5.87799072 -0.97316895 4.7520752 -1.02172852 3.59204102 C-1 1 -1 1 0 0 Z " fill="#529CE2" transform="translate(269,229)"/>
<path d="M0 0 C0.99 0.33 1.98 0.66 3 1 C1.24933204 4.88609811 -1.18324006 8.27812258 -3.625 11.75 C-4.04523438 12.35199219 -4.46546875 12.95398438 -4.8984375 13.57421875 C-5.92993137 15.05113043 -6.96464579 16.52579194 -8 18 C-8.83583327 15.62392051 -9.1842383 14.45550373 -8.22265625 12.078125 C-6.61132812 9.5390625 -6.61132812 9.5390625 -5 7 C-4.34 7 -3.68 7 -3 7 C-2.690625 6.030625 -2.38125 5.06125 -2.0625 4.0625 C-1 1 -1 1 0 0 Z " fill="#6A72C9" transform="translate(179,285)"/>
<path d="M0 0 C1.98 0 3.96 0 6 0 C6 0.66 6 1.32 6 2 C6.99 1.67 7.98 1.34 9 1 C12.91240268 1.92474972 16.48654206 3.03246355 20 5 C20 5.66 20 6.32 20 7 C19.34 6.67 18.68 6.34 18 6 C13.25849269 4.41949756 8.79136272 4.40287909 4 6 C1.2160817 4.60804085 1.02101003 2.84424221 0 0 Z " fill="#3CA7F4" transform="translate(312,233)"/>
<path d="M0 0 C2 2 2 2 2 5 C2.309375 6.0209375 2.309375 6.0209375 2.625 7.0625 C2.74875 7.701875 2.8725 8.34125 3 9 C1 11 1 11 -1 11.4375 C-3.38640738 11.87458708 -3.38640738 11.87458708 -5 15 C-5 12.69 -5 10.38 -5 8 C-4.34 7.67 -3.68 7.34 -3 7 C-2.835 6.01 -2.67 5.02 -2.5 4 C-2.335 3.01 -2.17 2.02 -2 1 C-1.34 0.67 -0.68 0.34 0 0 Z " fill="#3DA5F2" transform="translate(277,213)"/>
<path d="M0 0 C0.66 0.66 1.32 1.32 2 2 C3.98821313 2.39764263 5.98944339 2.73775349 8 3 C8 3.66 8 4.32 8 5 C5.25162151 5.53107314 2.50187625 6.05015881 -0.25 6.5625 C-1.02730469 6.71396484 -1.80460938 6.86542969 -2.60546875 7.02148438 C-3.35957031 7.16005859 -4.11367187 7.29863281 -4.890625 7.44140625 C-5.58188477 7.57232666 -6.27314453 7.70324707 -6.98535156 7.83813477 C-9.21287942 8.01710362 -10.87506962 7.65206197 -13 7 C-10.36 6.67 -7.72 6.34 -5 6 C-4.67 5.01 -4.34 4.02 -4 3 C-3.01 2.67 -2.02 2.34 -1 2 C-0.67 1.34 -0.34 0.68 0 0 Z " fill="#5F61CC" transform="translate(249,394)"/>
<path d="M0 0 C0.66 0 1.32 0 2 0 C2.33 1.32 2.66 2.64 3 4 C1.04754815 5.19714555 -0.91214997 6.38248074 -2.875 7.5625 C-3.96554687 8.22378906 -5.05609375 8.88507813 -6.1796875 9.56640625 C-7.11039062 10.03949219 -8.04109375 10.51257813 -9 11 C-9.66 10.67 -10.32 10.34 -11 10 C-10.67 9.34 -10.34 8.68 -10 8 C-9.34 8 -8.68 8 -8 8 C-8 7.34 -8 6.68 -8 6 C-7.34 6 -6.68 6 -6 6 C-5.67 4.68 -5.34 3.36 -5 2 C-3.35 2 -1.7 2 0 2 C0 1.34 0 0.68 0 0 Z " fill="#5C5BD2" transform="translate(338,361)"/>
<path d="M0 0 C-0.66 0 -1.32 0 -2 0 C-2 0.66 -2 1.32 -2 2 C-4.3359375 3.76171875 -4.3359375 3.76171875 -7.375 5.6875 C-8.37273437 6.33074219 -9.37046875 6.97398437 -10.3984375 7.63671875 C-11.25695312 8.08660156 -12.11546875 8.53648437 -13 9 C-13.66 8.67 -14.32 8.34 -15 8 C-15 7.34 -15 6.68 -15 6 C-14.01 6 -13.02 6 -12 6 C-12 4.68 -12 3.36 -12 2 C-7.89783794 -0.73477471 -4.73617773 -1.57872591 0 0 Z " fill="#4F48C5" transform="translate(356,355)"/>
<path d="M0 0 C7.92 0 15.84 0 24 0 C23 9 23 9 20 12 C20.33 8.37 20.66 4.74 21 1 C14.07 1 7.14 1 0 1 C0 0.67 0 0.34 0 0 Z " fill="#6461B6" transform="translate(349,333)"/>
<path d="M0 0 C-0.66 0.66 -1.32 1.32 -2 2 C-4.3828125 1.9765625 -4.3828125 1.9765625 -7.125 1.625 C-8.03507812 1.51414062 -8.94515625 1.40328125 -9.8828125 1.2890625 C-10.58148438 1.19367188 -11.28015625 1.09828125 -12 1 C-12 1.66 -12 2.32 -12 3 C-13.98 3.33 -15.96 3.66 -18 4 C-17 1 -17 1 -13.5 -0.8125 C-8.64777913 -2.51780951 -4.77992878 -1.53798634 0 0 Z " fill="#4D47BF" transform="translate(327,329)"/>
<path d="M0 0 C0.66 0 1.32 0 2 0 C2 0.66 2 1.32 2 2 C3.32 1.67 4.64 1.34 6 1 C6.09152344 1.58523438 6.18304688 2.17046875 6.27734375 2.7734375 C7.17123857 5.52759991 8.44159227 6.67976341 10.5625 8.625 C11.74334995 9.71318768 12.89810336 10.83193202 14 12 C14 12.66 14 13.32 14 14 C14.66 14 15.32 14 16 14 C15.67 14.66 15.34 15.32 15 16 C8.64385364 12.02740852 4.34337032 7.09199993 0 1 C0 0.67 0 0.34 0 0 Z " fill="#729BD7" transform="translate(279,289)"/>
<path d="M0 0 C-1.4296947 4.08803327 -3.42413355 7.21670936 -6 10.6875 C-6.70125 11.64011719 -7.4025 12.59273438 -8.125 13.57421875 C-10 16 -10 16 -12 18 C-12 16.35 -12 14.7 -12 13 C-11.34 13 -10.68 13 -10 13 C-10 12.01 -10 11.02 -10 10 C-9.01 10 -8.02 10 -7 10 C-7.103125 9.0925 -7.20625 8.185 -7.3125 7.25 C-7 4 -7 4 -4.625 1.625 C-2 0 -2 0 0 0 Z " fill="#6B7AC8" transform="translate(199,261)"/>
<path d="M0 0 C0.66 0.33 1.32 0.66 2 1 C-0.16230009 2.68178896 -2.16599465 4.08299732 -4.625 5.3125 C-7.68682789 7.48800929 -8.12567963 9.42323484 -9 13 C-10.65 12.01 -12.3 11.02 -14 10 C-12.6875 8 -12.6875 8 -11 6 C-10.01 6 -9.02 6 -8 6 C-8 5.34 -8 4.68 -8 4 C-6.71349294 3.30289269 -5.42059335 2.61757124 -4.125 1.9375 C-3.40570313 1.55464844 -2.68640625 1.17179688 -1.9453125 0.77734375 C-1.30335938 0.52082031 -0.66140625 0.26429688 0 0 Z " fill="#48CFF3" transform="translate(311,179)"/>
<path d="M0 0 C0.33 0 0.66 0 1 0 C1.46530864 7.78961124 0.15721701 14.52678392 -2 22 C-2.66 22 -3.32 22 -4 22 C-4.25903503 16.8678684 -3.31287876 12.53055374 -2 7.625 C-1.80921875 6.88894531 -1.6184375 6.15289062 -1.421875 5.39453125 C-0.95437696 3.59466378 -0.47808424 1.79708452 0 0 Z " fill="#6091C7" transform="translate(386,322)"/>
<path d="M0 0 C0.33 0 0.66 0 1 0 C1.33 3.63 1.66 7.26 2 11 C0.02 11.66 -1.96 12.32 -4 13 C-4 13.66 -4 14.32 -4 15 C-7.3 15.33 -10.6 15.66 -14 16 C-14 15.01 -14 14.02 -14 13 C-12.4221875 13.0928125 -12.4221875 13.0928125 -10.8125 13.1875 C-5.81545214 12.94602209 -5.81545214 12.94602209 -2 10 C-0.98163613 6.70622936 -0.42945091 3.41637814 0 0 Z " fill="#6BA7D5" transform="translate(372,244)"/>
<path d="M0 0 C0.66 0.99 1.32 1.98 2 3 C0.35828571 5.50279492 -1.28810259 8.00227677 -2.9375 10.5 C-3.40607422 11.21542969 -3.87464844 11.93085938 -4.35742188 12.66796875 C-5.54548488 14.46288408 -6.76986521 16.2336526 -8 18 C-8.33 18 -8.66 18 -9 18 C-9 16.35 -9 14.7 -9 13 C-8.34 13 -7.68 13 -7 13 C-6.67 11.68 -6.34 10.36 -6 9 C-5.34 9 -4.68 9 -4 9 C-4 8.01 -4 7.02 -4 6 C-3.34 6 -2.68 6 -2 6 C-2 5.01 -2 4.02 -2 3 C-1.34 3 -0.68 3 0 3 C0 2.01 0 1.02 0 0 Z " fill="#656DC6" transform="translate(168,301)"/>
<path d="M0 0 C-3.07404893 1.54015031 -6.16049712 3.05362087 -9.25 4.5625 C-10.12269531 5.00013672 -10.99539063 5.43777344 -11.89453125 5.88867188 C-12.73886719 6.29794922 -13.58320313 6.70722656 -14.453125 7.12890625 C-15.61569824 7.70233765 -15.61569824 7.70233765 -16.80175781 8.28735352 C-19.31599145 9.10244103 -20.54679315 8.88207936 -23 8 C-5.80095759 -1.93365253 -5.80095759 -1.93365253 0 0 Z " fill="#86D1E3" transform="translate(324,174)"/>
<path d="M0 0 C1.4540625 0.0309375 1.4540625 0.0309375 2.9375 0.0625 C3.125 2.4375 3.125 2.4375 2.9375 5.0625 C1.9475 5.7225 0.9575 6.3825 -0.0625 7.0625 C-0.3925 8.0525 -0.7225 9.0425 -1.0625 10.0625 C-2.0525 9.7325 -3.0425 9.4025 -4.0625 9.0625 C-3.69125 8.485 -3.32 7.9075 -2.9375 7.3125 C-1.77083333 5.0625 -1.77083333 5.0625 -2.9375 2.8125 C-3.30875 2.235 -3.68 1.6575 -4.0625 1.0625 C-3.0625 0.0625 -3.0625 0.0625 0 0 Z " fill="#4468E7" transform="translate(228.0625,207.9375)"/>
<path d="M0 0 C4.11018964 3.35973367 7.94640442 6.60282237 11 11 C11 11.66 11 12.32 11 13 C11.66 13 12.32 13 13 13 C13.33 14.32 13.66 15.64 14 17 C13.01 16.67 12.02 16.34 11 16 C10.33333333 14.66666667 9.66666667 13.33333333 9 12 C7.35511706 10.31183067 5.68662458 8.64646685 4 7 C0 2.35135135 0 2.35135135 0 0 Z " fill="#88DAE6" transform="translate(432,190)"/>
<path d="M0 0 C0.33 0.66 0.66 1.32 1 2 C0.67 2.99 0.34 3.98 0 5 C-0.66 5 -1.32 5 -2 5 C-4.12046792 8.53411321 -4.53199289 11.94393835 -5 16 C-5.99 16 -6.98 16 -8 16 C-7.08404986 9.03562051 -5.02193351 4.9113878 0 0 Z " fill="#7E98DC" transform="translate(67,120)"/>
<path d="M0 0 C0.66 0.33 1.32 0.66 2 1 C0.73965413 2.50882261 -0.53363649 4.00684044 -1.8125 5.5 C-2.52019531 6.3353125 -3.22789062 7.170625 -3.95703125 8.03125 C-6 10 -6 10 -9 10 C-7.61811547 6.78956118 -6.07578097 4.95063635 -3.375 2.75 C-2.74335938 2.22921875 -2.11171875 1.7084375 -1.4609375 1.171875 C-0.73777344 0.59179688 -0.73777344 0.59179688 0 0 Z M-11 10 C-10.34 10.33 -9.68 10.66 -9 11 C-9.99 11.66 -10.98 12.32 -12 13 C-11.67 12.01 -11.34 11.02 -11 10 Z M-14 13 C-13.34 13.33 -12.68 13.66 -12 14 C-12.99 14.66 -13.98 15.32 -15 16 C-14.67 15.01 -14.34 14.02 -14 13 Z " fill="#4565EB" transform="translate(169,227)"/>
<path d="M0 0 C0 0.99 0 1.98 0 3 C-0.66 3 -1.32 3 -2 3 C-2.33 3.99 -2.66 4.98 -3 6 C-6.875 5.125 -6.875 5.125 -8 4 C-10.33944736 4.28730055 -12.6739143 4.61936779 -15 5 C-11.11932678 1.11932678 -5.4348024 -0.50951273 0 0 Z " fill="#4576ED" transform="translate(250,183)"/>
<path d="M0 0 C0 1.65 0 3.3 0 5 C-2.8125 6.5625 -2.8125 6.5625 -6 8 C-6.99 7.67 -7.98 7.34 -9 7 C-7.4576387 2.93377477 -4.5679954 0 0 0 Z " fill="#5A90DE" transform="translate(396,345)"/>
<path d="M0 0 C-6.24309927 2.77471079 -11.19796625 3.37634203 -18 3 C-18 2.34 -18 1.68 -18 1 C-15.75152519 0.63627613 -13.50113812 0.28435904 -11.25 -0.0625 C-9.99703125 -0.25972656 -8.7440625 -0.45695312 -7.453125 -0.66015625 C-4.49983411 -0.95080818 -2.7397586 -0.98935727 0 0 Z " fill="#4F53CF" transform="translate(284,344)"/>
<path d="M0 0 C1.45947705 0.06006078 2.91779272 0.1488689 4.375 0.25 C5.59316406 0.31960937 5.59316406 0.31960937 6.8359375 0.390625 C9 1 9 1 10.3125 2.84375 C11.25358222 5.79532605 10.67687877 8.02173343 10 11 C7 9 7 9 6.3125 5.875 C6.209375 4.92625 6.10625 3.9775 6 3 C5.01 2.67 4.02 2.34 3 2 C2.01 1.34 1.02 0.68 0 0 Z " fill="#7CA5DF" transform="translate(258,116)"/>
<path d="M0 0 C4.29 0.66 8.58 1.32 13 2 C12.01 3.32 11.02 4.64 10 6 C9.01 5.67 8.02 5.34 7 5 C7 4.34 7 3.68 7 3 C5.8553125 3.5259375 5.8553125 3.5259375 4.6875 4.0625 C2 5 2 5 -1 4 C-0.67 2.68 -0.34 1.36 0 0 Z " fill="#3F9DF6" transform="translate(313,258)"/>
<path d="M0 0 C0.66 0.66 1.32 1.32 2 2 C1.625 4.125 1.625 4.125 1 6 C0.01 6 -0.98 6 -2 6 C-2.33 7.65 -2.66 9.3 -3 11 C-4.32 10.67 -5.64 10.34 -7 10 C-3.535 5.05 -3.535 5.05 0 0 Z " fill="#8096DD" transform="translate(151,227)"/>
<path d="M0 0 C0.73024165 2.53436808 1.02767551 3.86162244 0.5 6.5 C-1.66586242 10.10977069 -4.26020467 11.13010233 -8 13 C-6.40956621 7.91061189 -3.2553049 4.12543357 0 0 Z " fill="#7E7ED6" transform="translate(78,332)"/>
<path d="M0 0 C0.33 0 0.66 0 1 0 C1 2.31 1 4.62 1 7 C0.01 7.33 -0.98 7.66 -2 8 C-2 8.66 -2 9.32 -2 10 C-3.65 10.66 -5.3 11.32 -7 12 C-5.48109469 7.44328408 -3.04597738 3.68276708 0 0 Z " fill="#7B8CD7" transform="translate(143,238)"/>
<path d="M0 0 C1.33332095 2.6666419 0.67102033 4.16680303 0 7 C-0.99 7 -1.98 7 -3 7 C-3.66 8.65 -4.32 10.3 -5 12 C-5.99 11.67 -6.98 11.34 -8 11 C-7.67 10.01 -7.34 9.02 -7 8 C-6.01 8 -5.02 8 -4 8 C-3.8453125 6.576875 -3.8453125 6.576875 -3.6875 5.125 C-3 2 -3 2 0 0 Z " fill="#4760DB" transform="translate(220,224)"/>
<path d="M0 0 C3 1 3 1 4.0625 3 C4.371875 3.66 4.68125 4.32 5 5 C5.66 5.33 6.32 5.66 7 6 C7.625 9.0625 7.625 9.0625 8 12 C5.525 11.01 5.525 11.01 3 10 C3 9.01 3 8.02 3 7 C2.34 7 1.68 7 1 7 C1.020625 6.21625 1.04125 5.4325 1.0625 4.625 C1.18684063 2.01885039 1.18684063 2.01885039 0 0 Z " fill="#48D8F2" transform="translate(439,201)"/>
<path d="M0 0 C5.94 0 11.88 0 18 0 C18 2.31 18 4.62 18 7 C17.67 7 17.34 7 17 7 C16.67 5.35 16.34 3.7 16 2 C14.083412 1.97287847 12.1667127 1.95354903 10.25 1.9375 C9.18265625 1.92589844 8.1153125 1.91429687 7.015625 1.90234375 C4.46631499 1.98489913 2.42066409 2.25382442 0 3 C0 2.01 0 1.02 0 0 Z " fill="#211BCE" transform="translate(352,335)"/>
<path d="M0 0 C0.33 0 0.66 0 1 0 C1.33 8.25 1.66 16.5 2 25 C1.01 24.67 0.02 24.34 -1 24 C-0.67 16.08 -0.34 8.16 0 0 Z " fill="#5DCBEB" transform="translate(454,235)"/>
<path d="M0 0 C0.99 0.33 1.98 0.66 3 1 C-0.3 5.95 -3.6 10.9 -7 16 C-7.33 14.68 -7.66 13.36 -8 12 C-7.34 11.01 -6.68 10.02 -6 9 C-5.34 9 -4.68 9 -4 9 C-4 7.68 -4 6.36 -4 5 C-2.5625 3.375 -2.5625 3.375 -1 2 C-0.67 1.34 -0.34 0.68 0 0 Z " fill="#7986CC" transform="translate(217,231)"/>
<path d="M0 0 C0.66 0.99 1.32 1.98 2 3 C1.34 4.32 0.68 5.64 0 7 C-0.99 7 -1.98 7 -3 7 C-3.33 7.99 -3.66 8.98 -4 10 C-4.66 10 -5.32 10 -6 10 C-5.45276317 6.62537285 -4.9451 4.91765 -3 2 C-2.01 2 -1.02 2 0 2 C0 1.34 0 0.68 0 0 Z " fill="#648EDC" transform="translate(173,197)"/>
<path d="M0 0 C1 2 1 2 0.0625 5.125 C-0.288125 6.07375 -0.63875 7.0225 -1 8 C-1.66 8 -2.32 8 -3 8 C-3.66 9.98 -4.32 11.96 -5 14 C-5.99 13.67 -6.98 13.34 -8 13 C-8 12.34 -8 11.68 -8 11 C-7.34 11 -6.68 11 -6 11 C-5.83177734 10.12601563 -5.83177734 10.12601563 -5.66015625 9.234375 C-4.93999124 6.79689343 -3.95620605 5.2749414 -2.4375 3.25 C-1.98246094 2.63640625 -1.52742187 2.0228125 -1.05859375 1.390625 C-0.70925781 0.93171875 -0.35992187 0.4728125 0 0 Z " fill="#84A3DB" transform="translate(182,182)"/>
<path d="M0 0 C0.99 0.99 1.98 1.98 3 3 C2.01 3 1.02 3 0 3 C-0.103125 3.556875 -0.20625 4.11375 -0.3125 4.6875 C-1.42627624 8.43383827 -2.77889932 11.26733959 -6.1875 13.3125 C-7.0846875 13.6528125 -7.0846875 13.6528125 -8 14 C-8 13.34 -8 12.68 -8 12 C-7.34 12 -6.68 12 -6 12 C-5.67 10.68 -5.34 9.36 -5 8 C-4.34 8 -3.68 8 -3 8 C-2.814375 6.8553125 -2.814375 6.8553125 -2.625 5.6875 C-2 3 -2 3 0 0 Z " fill="#42A2EC" transform="translate(428,313)"/>
<path d="M0 0 C0 0.66 0 1.32 0 2 C0.99 2 1.98 2 3 2 C3 2.66 3 3.32 3 4 C-0.96 4 -4.92 4 -9 4 C-7.04565548 0.09131097 -4.13449517 0 0 0 Z " fill="#3DCCF6" transform="translate(406,232)"/>
<path d="M0 0 C0.66 0 1.32 0 2 0 C2.58305225 3.84814487 1.7002883 5.76308635 -0.5 8.8125 C-1.32219744 9.88364055 -2.15204049 10.9491359 -3 12 C-3.93423645 8.98968256 -4.04449911 8.13349732 -3 5 C-2.34 5 -1.68 5 -1 5 C-0.67 3.35 -0.34 1.7 0 0 Z " fill="#6275C9" transform="translate(224,218)"/>
<path d="M0 0 C0.99 0 1.98 0 3 0 C2.67 1.65 2.34 3.3 2 5 C1.01 5.33 0.02 5.66 -1 6 C-2.21869929 8.50447516 -2.21869929 8.50447516 -3 11 C-3.66 11 -4.32 11 -5 11 C-4.46972205 6.4926374 -2.80388725 3.5460927 0 0 Z " fill="#6D86D4" transform="translate(157,218)"/>
<path d="M0 0 C3.96 0.33 7.92 0.66 12 1 C9 4 9 4 5.3125 4.1875 C3.6728125 4.0946875 3.6728125 4.0946875 2 4 C1.67 4.66 1.34 5.32 1 6 C-0.0625 4.125 -0.0625 4.125 -1 2 C-0.67 1.34 -0.34 0.68 0 0 Z " fill="#71E4F2" transform="translate(380,169)"/>
<path d="M0 0 C4.33168317 -0.26252625 7.8803623 0.70756464 12 2 C12 2.99 12 3.98 12 5 C11.05125 4.979375 10.1025 4.95875 9.125 4.9375 C6.09333717 4.77448174 6.09333717 4.77448174 4 6 C3.896875 5.38125 3.79375 4.7625 3.6875 4.125 C3.12474627 1.63473516 3.12474627 1.63473516 0 0 Z " fill="#4DDCF0" transform="translate(404,177)"/>
<path d="M0 0 C1.27230469 0.01804687 2.54460937 0.03609375 3.85546875 0.0546875 C5.31919922 0.08949219 5.31919922 0.08949219 6.8125 0.125 C6.8125 0.455 6.8125 0.785 6.8125 1.125 C0.71910831 3.00841198 -3.91282201 3.1998291 -10.1875 2.125 C-6.4507157 -0.36618953 -4.44298181 -0.0815226 0 0 Z " fill="#3735C6" transform="translate(237.1875,398.875)"/>
<path d="M0 0 C1.32 0.66 2.64 1.32 4 2 C4 3.98 4 5.96 4 8 C2.68 8 1.36 8 0 8 C-0.38063221 5.6739143 -0.71269945 3.33944736 -1 1 C-0.67 0.67 -0.34 0.34 0 0 Z " fill="#5255D5" transform="translate(155,313)"/>
<path d="M0 0 C0.33 0 0.66 0 1 0 C1.02686553 1.97909398 1.04633375 3.95828971 1.0625 5.9375 C1.07410156 7.03964844 1.08570313 8.14179688 1.09765625 9.27734375 C1 12 1 12 0 13 C-1.99958364 13.04080783 -4.00045254 13.04254356 -6 13 C-5.195625 12.154375 -4.39125 11.30875 -3.5625 10.4375 C-0.78371338 7.1484842 -0.25882224 4.31370396 0 0 Z " fill="#82CCE5" transform="translate(412,245)"/>
<path d="M0 0 C8.03501094 -0.63019694 8.03501094 -0.63019694 12.0625 2 C12.701875 2.66 13.34125 3.32 14 4 C13.67 5.32 13.34 6.64 13 8 C12.1028125 7.071875 12.1028125 7.071875 11.1875 6.125 C7.56857893 2.60947667 4.91911313 1.65588175 0 1 C0 0.67 0 0.34 0 0 Z " fill="#61B4D9" transform="translate(358,236)"/>
<path d="M0 0 C4.92947689 -0.10150789 9.56533119 0.25757428 14.4375 1 C16.29181641 1.2784375 16.29181641 1.2784375 18.18359375 1.5625 C19.11300781 1.706875 20.04242188 1.85125 21 2 C21 2.33 21 2.66 21 3 C18.62468606 3.0543965 16.25064117 3.09385864 13.875 3.125 C13.20984375 3.14175781 12.5446875 3.15851563 11.859375 3.17578125 C7.50483944 3.21847278 4.04399886 2.59996217 0 1 C0 0.67 0 0.34 0 0 Z " fill="#6964BC" transform="translate(327,330)"/>
<path d="M0 0 C0 2.33333333 0 4.66666667 0 7 C-1.98 7.99 -3.96 8.98 -6 10 C-6 6.70776216 -5.49481868 4.91489643 -4 2 C-1.875 0.6875 -1.875 0.6875 0 0 Z " fill="#495CDE" transform="translate(200,254)"/>
<path d="M0 0 C1.20272819 2.40545638 1.10071472 3.94996953 1.0625 6.625 C1.05347656 7.44226563 1.04445313 8.25953125 1.03515625 9.1015625 C1.02355469 9.72804687 1.01195312 10.35453125 1 11 C1.66 11 2.32 11 3 11 C3 11.66 3 12.32 3 13 C3.66 13.33 4.32 13.66 5 14 C4.01 14.33 3.02 14.66 2 15 C-0.0625 13.625 -0.0625 13.625 -2 11 C-2.10834545 7.59253547 -1.71006614 4.33184882 -1 1 C-0.67 0.67 -0.34 0.34 0 0 Z " fill="#7BB5DB" transform="translate(353,243)"/>
<path d="M0 0 C3.3 0 6.6 0 10 0 C8 3 8 3 5 3.75 C2 4 2 4 0 3 C0 2.01 0 1.02 0 0 Z " fill="#42DEFC" transform="translate(368,171)"/>
<path d="M0 0 C0.99 0 1.98 0 3 0 C3 1.32 3 2.64 3 4 C2.34 4 1.68 4 1 4 C0.80664062 4.63808594 0.61328125 5.27617187 0.4140625 5.93359375 C0.15367187 6.75988281 -0.10671875 7.58617187 -0.375 8.4375 C-0.75785156 9.67306641 -0.75785156 9.67306641 -1.1484375 10.93359375 C-2 13 -2 13 -4 14 C-4 12.68 -4 11.36 -4 10 C-3.34 10 -2.68 10 -2 10 C-1.855625 9.278125 -1.71125 8.55625 -1.5625 7.8125 C-1.04166667 5.20833333 -0.52083333 2.60416667 0 0 Z " fill="#4F63D2" transform="translate(210,236)"/>
<path d="M0 0 C0 0.66 0 1.32 0 2 C-1.65848177 3.01351664 -3.32665961 4.01120795 -5 5 C-6.36984198 6.29579647 -7.7151049 7.61992749 -9 9 C-9.375 6.75 -9.375 6.75 -9 4 C-5.8680624 1.42485131 -4.10589421 0 0 0 Z " fill="#63C4E2" transform="translate(303,183)"/>
<path d="M0 0 C0.33 1.32 0.66 2.64 1 4 C-0.8125 6.75 -0.8125 6.75 -3 9 C-3.66 9 -4.32 9 -5 9 C-5 9.66 -5 10.32 -5 11 C-5.66 10.67 -6.32 10.34 -7 10 C-3.535 5.05 -3.535 5.05 0 0 Z " fill="#8E93D8" transform="translate(100,300)"/>
<path d="M0 0 C5 5 5 5 5 8 C3.68 9.32 2.36 10.64 1 12 C0.67 8.04 0.34 4.08 0 0 Z " fill="#3EA5E0" transform="translate(372,242)"/>
<path d="M0 0 C2 3 2 3 2 6 C2.66 6 3.32 6 4 6 C4.33 7.65 4.66 9.3 5 11 C3.82460004 10.07347299 2.65989423 9.13336613 1.5 8.1875 C0.52546875 7.40439453 0.52546875 7.40439453 -0.46875 6.60546875 C-2 5 -2 5 -2 2 C-1.34 1.34 -0.68 0.68 0 0 Z " fill="#41C5F2" transform="translate(369,232)"/>
<path d="M0 0 C3.79051431 0.07594837 6.11252424 1.00626818 9.1875 3.3125 C8.8575 4.3025 8.5275 5.2925 8.1875 6.3125 C7.176875 5.6525 6.16625 4.9925 5.125 4.3125 C1.40687109 2.15750284 -1.50165491 1.96059428 -5.8125 2.3125 C-3.8125 0.3125 -3.8125 0.3125 0 0 Z " fill="#7CB4D7" transform="translate(322.8125,236.6875)"/>
<path d="M0 0 C1.32 0 2.64 0 4 0 C4 1.32 4 2.64 4 4 C3.34 4 2.68 4 2 4 C1.67 4.99 1.34 5.98 1 7 C0.34 7 -0.32 7 -1 7 C-1.625 5.1875 -1.625 5.1875 -2 3 C-1.34 2.01 -0.68 1.02 0 0 Z " fill="#4869DE" transform="translate(234,200)"/>
<path d="M0 0 C0.33 0 0.66 0 1 0 C1.50130606 5.26371362 0.31168629 7.9090934 -3 12 C-3.66 12 -4.32 12 -5 12 C-5 10.68 -5 9.36 -5 8 C-4.34 7.67 -3.68 7.34 -3 7 C-2.34786708 4.97536745 -2.34786708 4.97536745 -2 3 C-1.34 3 -0.68 3 0 3 C0 2.01 0 1.02 0 0 Z " fill="#7A99D7" transform="translate(255,174)"/>
<path d="M0 0 C1.32 0.66 2.64 1.32 4 2 C-3.92 2.495 -3.92 2.495 -12 3 C-7.59158964 0.06105976 -5.34048684 -0.27623208 0 0 Z " fill="#7979CD" transform="translate(232,401)"/>
<path d="M0 0 C0.99 0 1.98 0 3 0 C1.80100302 3.0831351 0.52299523 6.06279492 -1 9 C-1.33 8.34 -1.66 7.68 -2 7 C-2.66 6.67 -3.32 6.34 -4 6 C-2.1875 3 -2.1875 3 0 0 Z " fill="#6971DA" transform="translate(105,293)"/>
<path d="M0 0 C1.32 0.33 2.64 0.66 4 1 C3.525625 1.495 3.05125 1.99 2.5625 2.5 C0.37832093 5.99468651 0.34086089 8.90966936 0 13 C-0.33 13 -0.66 13 -1 13 C-1.2236337 11.58566794 -1.42826476 10.16832382 -1.625 8.75 C-1.74101562 7.96109375 -1.85703125 7.1721875 -1.9765625 6.359375 C-2.00319395 3.67847541 -1.36592084 2.27305911 0 0 Z " fill="#84BCE1" transform="translate(313,238)"/>
<path d="M0 0 C0.99 0.33 1.98 0.66 3 1 C2.21718695 2.33855056 1.42348123 3.67073644 0.625 5 C0.18414062 5.7425 -0.25671875 6.485 -0.7109375 7.25 C-1.34902344 8.11625 -1.34902344 8.11625 -2 9 C-2.66 9 -3.32 9 -4 9 C-4.33 9.66 -4.66 10.32 -5 11 C-5 10.01 -5 9.02 -5 8 C-4.34 8 -3.68 8 -3 8 C-3.0928125 6.8553125 -3.0928125 6.8553125 -3.1875 5.6875 C-3 3 -3 3 -1.5 1.1875 C-1.005 0.795625 -0.51 0.40375 0 0 Z " fill="#8397D0" transform="translate(241,196)"/>
<path d="M0 0 C0.6875 1.5625 0.6875 1.5625 1 4 C0.05719096 6.3570226 -0.94647157 8.69034152 -2 11 C-2.69140522 13.77888613 -2.69140522 13.77888613 -3 16 C-3.33 16 -3.66 16 -4 16 C-3.40546697 4.29384966 -3.40546697 4.29384966 0 0 Z " fill="#6667CC" transform="translate(64,352)"/>
<path d="M0 0 C-4.99296295 2.9445679 -9.33557626 3.63495936 -15 4 C-15 3.34 -15 2.68 -15 2 C-13.25364835 1.46706165 -11.50272348 0.94909337 -9.75 0.4375 C-8.77546875 0.14746094 -7.8009375 -0.14257812 -6.796875 -0.44140625 C-4.03756068 -0.99249836 -2.6087176 -0.93789609 0 0 Z " fill="#3A3CD4" transform="translate(266,348)"/>
<path d="M0 0 C0 0.99 0 1.98 0 3 C-0.99 3.495 -0.99 3.495 -2 4 C-2.33 4.99 -2.66 5.98 -3 7 C-3.66 7 -4.32 7 -5 7 C-5 6.34 -5 5.68 -5 5 C-5.66 4.67 -6.32 4.34 -7 4 C-3.375 0 -3.375 0 0 0 Z " fill="#4597E7" transform="translate(417,329)"/>
<path d="M0 0 C3.36939433 0.33693943 5.42910583 1.88819408 8 4 C6.375 4.6875 6.375 4.6875 4 5 C0.75 3.5625 0.75 3.5625 -2 2 C-1.34 1.34 -0.68 0.68 0 0 Z " fill="#6867D1" transform="translate(65,399)"/>
<path d="M0 0 C-0.66 0 -1.32 0 -2 0 C-2 0.66 -2 1.32 -2 2 C-3.98 2.99 -5.96 3.98 -8 5 C-8.33 3.35 -8.66 1.7 -9 0 C-5.62182575 -0.84454356 -3.32534757 -1.10844919 0 0 Z " fill="#5956BD" transform="translate(356,355)"/>
<path d="M0 0 C0.66 0.33 1.32 0.66 2 1 C0.35 3.64 -1.3 6.28 -3 9 C-3.66 7.68 -4.32 6.36 -5 5 C-4.125 2.75 -4.125 2.75 -3 1 C-2.01 1.33 -1.02 1.66 0 2 C0 1.34 0 0.68 0 0 Z " fill="#3E3DDC" transform="translate(143,336)"/>
<path d="M0 0 C1.74965358 -0.05429959 3.49979787 -0.09292823 5.25 -0.125 C6.22453125 -0.14820313 7.1990625 -0.17140625 8.203125 -0.1953125 C11.0196498 0.00137219 12.60949036 0.55431084 15 2 C15 2.66 15 3.32 15 4 C14.34 3.67 13.68 3.34 13 3 C8.25849269 1.41949756 3.79136272 1.40287909 -1 3 C-0.67 2.01 -0.34 1.02 0 0 Z " fill="#47A0DC" transform="translate(317,236)"/>
<path d="M0 0 C-0.33 0.99 -0.66 1.98 -1 3 C-3.375 3.625 -3.375 3.625 -6 4 C-6.66 3.34 -7.32 2.68 -8 2 C-6.14210462 -1.71579076 -3.44525918 -1.06921837 0 0 Z " fill="#4D4ECA" transform="translate(305,381)"/>
<path d="M0 0 C0 0.66 0 1.32 0 2 C-2.375 3.6875 -2.375 3.6875 -5 5 C-5.66 4.67 -6.32 4.34 -7 4 C-7.33 4.99 -7.66 5.98 -8 7 C-8.66 6.67 -9.32 6.34 -10 6 C-7.24592055 1.86888082 -5.06244779 0 0 0 Z " fill="#6F77DD" transform="translate(116,285)"/>
<path d="M0 0 C2 1 2 1 3 3 C-0.9813783 4.3271261 -4.85045227 4.06915913 -9 4 C-6.06195683 2.47657021 -3.13439441 1.07229283 0 0 Z " fill="#7D80D4" transform="translate(295,336)"/>
<path d="M0 0 C1 3 1 3 0.22265625 4.82421875 C-0.8515625 6.54947917 -1.92578125 8.27473958 -3 10 C-3.99 10 -4.98 10 -6 10 C-4.34832443 6.4213696 -2.21713508 3.25179812 0 0 Z " fill="#8996D7" transform="translate(135,250)"/>
<path d="M0 0 C0 1.65 0 3.3 0 5 C-3 5 -3 5 -4.6875 3.5 C-5.120625 3.005 -5.55375 2.51 -6 2 C-2.25 0 -2.25 0 0 0 Z " fill="#3CCDF9" transform="translate(303,186)"/>
<path d="M0 0 C3.3 1.65 6.6 3.3 10 5 C10 5.66 10 6.32 10 7 C6.51329166 5.8905928 3.22515763 4.73662334 0 3 C0 2.01 0 1.02 0 0 Z " fill="#87DCE8" transform="translate(416,179)"/>
<path d="M0 0 C-1 3 -1 3 -2.875 4.1875 C-5 5 -5 5 -8 5 C-8 4.34 -8 3.68 -8 3 C-5.04518508 0.25624329 -4.22528092 0 0 0 Z " fill="#6060C7" transform="translate(326,371)"/>
<path d="M0 0 C0.66 0 1.32 0 2 0 C1.5206753 4.31392226 0.2542015 6.16569547 -3 9 C-3 7.35 -3 5.7 -3 4 C-2.34 4 -1.68 4 -1 4 C-0.67 2.68 -0.34 1.36 0 0 Z " fill="#7073CA" transform="translate(162,310)"/>
<path d="M0 0 C3 1 3 1 4.75 3.8125 C6.05483179 7.13982105 6.02866653 7.79584277 5 11 C4.16426177 9.35538655 3.33147118 7.70927487 2.5 6.0625 C2.0359375 5.14597656 1.571875 4.22945313 1.09375 3.28515625 C0 1 0 1 0 0 Z " fill="#7EA8D5" transform="translate(273,278)"/>
<path d="M0 0 C1.39195915 4.17587745 -0.17676781 6.13474776 -2 10 C-2.66 9.67 -3.32 9.34 -4 9 C-4 5.00095031 -2.27413033 3.19799578 0 0 Z " fill="#717BD1" transform="translate(126,263)"/>
<path d="M0 0 C2 1.625 2 1.625 4 4 C4.25 7.25 4.25 7.25 4 10 C3.34 10 2.68 10 2 10 C1.34 6.7 0.68 3.4 0 0 Z " fill="#479DD9" transform="translate(331,242)"/>
<path d="M0 0 C2.02350324 3.03525486 2.32124018 4.19426202 2.625 7.6875 C2.69976562 8.49574219 2.77453125 9.30398438 2.8515625 10.13671875 C2.90054688 10.75160156 2.94953125 11.36648438 3 12 C0.13700494 9.13700494 0.00578775 7.34147716 -0.0625 3.3125 C-0.041875 2.219375 -0.02125 1.12625 0 0 Z " fill="#7B79CC" transform="translate(58,386)"/>
<path d="M0 0 C1.98 0 3.96 0 6 0 C3.51047079 2.66735273 1.36591866 4.55746343 -2 6 C-2 5.01 -2 4.02 -2 3 C-1.34 3 -0.68 3 0 3 C0 2.01 0 1.02 0 0 Z " fill="#5950BA" transform="translate(363,345)"/>
<path d="M0 0 C0.66 0 1.32 0 2 0 C2.125 5.75 2.125 5.75 1 8 C0.34 8 -0.32 8 -1 8 C-1.125 2.25 -1.125 2.25 0 0 Z " fill="#6599D3" transform="translate(383,336)"/>
<path d="M0 0 C0.66 0 1.32 0 2 0 C2 0.66 2 1.32 2 2 C2.99 2.33 3.98 2.66 5 3 C5 3.66 5 4.32 5 5 C2.69 5 0.38 5 -2 5 C-1.34 3.35 -0.68 1.7 0 0 Z " fill="#5389DF" transform="translate(318,312)"/>
<path d="M0 0 C0.99 0.33 1.98 0.66 3 1 C2.6875 2.9375 2.6875 2.9375 2 5 C1.01 5.33 0.02 5.66 -1 6 C-1.042721 4.33388095 -1.04063832 2.66617115 -1 1 C-0.67 0.67 -0.34 0.34 0 0 Z " fill="#408CFA" transform="translate(384,343)"/>
<path d="M0 0 C0.66 0 1.32 0 2 0 C2 0.66 2 1.32 2 2 C2.66 2.33 3.32 2.66 4 3 C2.02 4.32 0.04 5.64 -2 7 C-2.33 5.68 -2.66 4.36 -3 3 C-1.68 3 -0.36 3 1 3 C0.67 2.01 0.34 1.02 0 0 Z " fill="#6BA7DE" transform="translate(410,334)"/>
<path d="M0 0 C0.66 0.33 1.32 0.66 2 1 C1.67 1.99 1.34 2.98 1 4 C-0.98 4.33 -2.96 4.66 -5 5 C-4 2 -4 2 -2.0625 0.75 C-1.381875 0.5025 -0.70125 0.255 0 0 Z " fill="#6464C9" transform="translate(314,328)"/>
<path d="M0 0 C1.32 0.33 2.64 0.66 4 1 C3.34 3.31 2.68 5.62 2 8 C0 6 0 6 -0.125 2.875 C-0.08375 1.92625 -0.0425 0.9775 0 0 Z " fill="#45A9E5" transform="translate(432,307)"/>
<path d="M0 0 C1.32 0.33 2.64 0.66 4 1 C3.19152271 2.16945792 2.37810888 3.33550461 1.5625 4.5 C1.11003906 5.1496875 0.65757812 5.799375 0.19140625 6.46875 C-0.20175781 6.9740625 -0.59492188 7.479375 -1 8 C-1.33 8 -1.66 8 -2 8 C-2 6.35 -2 4.7 -2 3 C-1.34 3 -0.68 3 0 3 C0 2.01 0 1.02 0 0 Z " fill="#7D86CD" transform="translate(189,271)"/>
<path d="M0 0 C0.66 0 1.32 0 2 0 C1.875 1.8125 1.875 1.8125 1 4 C-2.0625 5.75 -2.0625 5.75 -5 7 C-5 6.34 -5 5.68 -5 5 C-4.34 5 -3.68 5 -3 5 C-2.5359375 4.0409375 -2.5359375 4.0409375 -2.0625 3.0625 C-1 1 -1 1 0 0 Z " fill="#71B8DC" transform="translate(285,196)"/>
<path d="M0 0 C1.32 0.33 2.64 0.66 4 1 C4 1.66 4 2.32 4 3 C4.66 3.33 5.32 3.66 6 4 C5.34 4.66 4.68 5.32 4 6 C2.68 5.34 1.36 4.68 0 4 C0 2.66666667 0 1.33333333 0 0 Z " fill="#44DDF5" transform="translate(422,185)"/>
<path d="M0 0 C0.66 0 1.32 0 2 0 C2 0.99 2 1.98 2 3 C1.34 3 0.68 3 0 3 C-0.33 3.99 -0.66 4.98 -1 6 C-2.32 5.67 -3.64 5.34 -5 5 C-3.625 3.5 -3.625 3.5 -2 2 C-1.34 2 -0.68 2 0 2 C0 1.34 0 0.68 0 0 Z " fill="#496BE2" transform="translate(248,183)"/>
<path d="M0 0 C-1.0625 1.5 -1.0625 1.5 -3 3 C-6.6875 3.1875 -6.6875 3.1875 -10 3 C-9 1 -9 1 -7.25 0.375 C-4.79549443 -0.03408426 -2.4840589 -0.06900164 0 0 Z " fill="#47D2F1" transform="translate(337,172)"/>
<path d="M0 0 C0.66 0 1.32 0 2 0 C2.66 2.31 3.32 4.62 4 7 C2.68 6.67 1.36 6.34 0 6 C0 4.02 0 2.04 0 0 Z " fill="#514FD3" transform="translate(61,393)"/>
<path d="M0 0 C0 0.33 0 0.66 0 1 C-1.98 1 -3.96 1 -6 1 C-6 1.66 -6 2.32 -6 3 C-7.32 2.67 -8.64 2.34 -10 2 C-6.64608848 -1.35391152 -4.35183427 -1.05855428 0 0 Z " fill="#3839CE" transform="translate(299,384)"/>
<path d="M0 0 C0.33 1.32 0.66 2.64 1 4 C-0.875 5.0625 -0.875 5.0625 -3 6 C-3.66 5.67 -4.32 5.34 -5 5 C-5 3 -5 3 -3.625 1.375 C-2 0 -2 0 0 0 Z " fill="#545CDF" transform="translate(111,289)"/>
<path d="M0 0 C2 3 2 3 2 5 C0.02 5.66 -1.96 6.32 -4 7 C-2.68 4.69 -1.36 2.38 0 0 Z " fill="#898FD5" transform="translate(114,280)"/>
<path d="M0 0 C0.99 0.33 1.98 0.66 3 1 C2.01 1.495 2.01 1.495 1 2 C1 3.32 1 4.64 1 6 C-0.32 5.67 -1.64 5.34 -3 5 C-2.67 4.01 -2.34 3.02 -2 2 C-1.34 2 -0.68 2 0 2 C0 1.34 0 0.68 0 0 Z " fill="#44C6F2" transform="translate(292,191)"/>
<path d="M0 0 C0.33 0.66 0.66 1.32 1 2 C-0.25 5.0625 -0.25 5.0625 -2 8 C-2.99 8.33 -3.98 8.66 -5 9 C-3.7508258 5.54074837 -2.32472205 2.85306797 0 0 Z " fill="#9DB8E0" transform="translate(188,173)"/>
<path d="M0 0 C0.66 0.99 1.32 1.98 2 3 C1.125 6.1875 1.125 6.1875 0 9 C-1.125 7.3125 -1.125 7.3125 -2 5 C-1.125 2.25 -1.125 2.25 0 0 Z " fill="#7BA5DB" transform="translate(381,342)"/>
<path d="M0 0 C0.8125 1.6875 0.8125 1.6875 1 4 C-1.4375 6.75 -1.4375 6.75 -4 9 C-3.35455571 5.51460083 -1.89865603 2.97180943 0 0 Z " fill="#7CAFD8" transform="translate(427,319)"/>
<path d="M0 0 C0 0.66 0 1.32 0 2 C-2.875 2.625 -2.875 2.625 -6 3 C-6.66 2.34 -7.32 1.68 -8 1 C-5.29120665 -0.35439668 -2.99066732 -0.06501451 0 0 Z " fill="#6290DF" transform="translate(329,316)"/>
<path d="M0 0 C0.66 0.33 1.32 0.66 2 1 C0.69593116 3.01920337 -0.63823419 5.01924973 -2 7 C-2.33 7 -2.66 7 -3 7 C-3.1875 4.625 -3.1875 4.625 -3 2 C-2.01 1.34 -1.02 0.68 0 0 Z " fill="#7880C9" transform="translate(185,279)"/>
<path d="M0 0 C0.66 0 1.32 0 2 0 C1.40072174 3.35595828 0.15377564 5.37801226 -2 8 C-2.66 7.67 -3.32 7.34 -4 7 C-2.68 4.69 -1.36 2.38 0 0 Z " fill="#586CDD" transform="translate(137,249)"/>
<path d="M0 0 C-2.93720508 1.52299523 -5.9168649 2.80100302 -9 4 C-9.33 3.01 -9.66 2.02 -10 1 C-6.78548731 -0.60725635 -3.56387464 -0.05748185 0 0 Z " fill="#7ACBE1" transform="translate(405,237)"/>
<path d="M0 0 C0.33 1.32 0.66 2.64 1 4 C-0.65 4.66 -2.3 5.32 -4 6 C-2.25 1.125 -2.25 1.125 0 0 Z " fill="#5485E2" transform="translate(186,180)"/>
<path d="M0 0 C0.66 0 1.32 0 2 0 C2 2.31 2 4.62 2 7 C1.01 7 0.02 7 -1 7 C-0.67 4.69 -0.34 2.38 0 0 Z " fill="#7B91D2" transform="translate(60,129)"/>
</svg>
